<?xml version="1.0" standalone="no"?>
<!DOCTYPE svg PUBLIC "-//W3C//DTD SVG 20010904//EN"
 "http://www.w3.org/TR/2001/REC-SVG-20010904/DTD/svg10.dtd">
<svg version="1.0" xmlns="http://www.w3.org/2000/svg"
 width="700.000000pt" height="700.000000pt" viewBox="0 0 700.000000 700.000000"
 preserveAspectRatio="xMidYMid meet">
<metadata>
Created by potrace 1.14, written by Peter Selinger 2001-2017
</metadata>
<g transform="translate(0.000000,700.000000) scale(0.100000,-0.100000)"
fill="#000000" stroke="none">
<path d="M1774 5174 c-164 -273 -297 -501 -297 -508 0 -7 134 -236 298 -509
l298 -497 598 0 598 0 301 502 c256 426 300 505 291 522 -5 12 -140 237 -298
501 l-289 480 -602 3 -601 2 -297 -496z"/>
<path d="M4086 4478 c-18 -29 -559 -956 -574 -983 -9 -18 30 -91 288 -530
l298 -510 604 -2 603 -2 295 505 c162 278 296 510 298 515 2 4 -131 238 -295
519 l-298 510 -602 0 -603 0 -14 -22z"/>
<path d="M1957 3098 c-239 -404 -435 -735 -460 -778 l-26 -46 298 -504 298
-505 604 0 604 0 297 500 c163 275 297 505 297 510 0 6 -134 235 -297 510
l-297 500 -602 3 -602 2 -114 -192z"/>
</g>
</svg>
