<svg width="184" height="54" viewBox="0 0 184 54" fill="none" xmlns="http://www.w3.org/2000/svg">
<path d="M77.3675 16.8987V34.615H75.0175V16.8987H77.3675Z" fill="white"/>
<path d="M87.8736 16.8987V34.615H85.5569V16.8987H87.8736ZM93.5786 16.8987V18.8199H79.8652V16.8987H93.5786Z" fill="white"/>
<path d="M107.605 31.9094L112.838 16.8788H115.381L108.81 34.5951H106.999L107.605 31.9094ZM102.719 16.8987L107.898 31.9094L108.564 34.5685H106.746L100.189 16.8522L102.719 16.8987Z" fill="white"/>
<path d="M122.362 34.8611C121.507 34.8743 120.658 34.716 119.865 34.3957C119.141 34.0897 118.488 33.637 117.948 33.0661C117.415 32.4878 117.001 31.8101 116.73 31.0718C116.44 30.2498 116.296 29.3838 116.304 28.5124V28.0005C116.287 27.0265 116.45 26.0576 116.783 25.142C117.066 24.3496 117.505 23.6218 118.074 23.0014C118.59 22.4323 119.221 21.9791 119.925 21.6718C120.6 21.3718 121.33 21.2177 122.069 21.2198C122.907 21.1966 123.74 21.3625 124.505 21.7051C125.175 22.0118 125.759 22.4801 126.203 23.0679C126.646 23.6786 126.967 24.3694 127.148 25.1021C127.368 25.935 127.476 26.7935 127.467 27.6548V28.6653H117.648V26.8305H125.237V26.6577C125.205 26.0747 125.082 25.5005 124.871 24.9558C124.683 24.419 124.346 23.9465 123.899 23.593C123.369 23.2082 122.723 23.018 122.069 23.0546C121.578 23.051 121.094 23.1649 120.657 23.387C120.215 23.6055 119.833 23.9298 119.546 24.331C119.217 24.8014 118.974 25.3256 118.827 25.8799C118.649 26.5658 118.564 27.2722 118.574 27.9806V28.4925C118.571 29.0911 118.656 29.6869 118.827 30.2608C118.995 30.7822 119.256 31.2688 119.599 31.6967C119.932 32.1054 120.35 32.4367 120.824 32.6673C121.342 32.91 121.909 33.0306 122.481 33.0196C123.179 33.0387 123.868 32.8712 124.479 32.5343C125.046 32.1918 125.539 31.7398 125.93 31.2048L127.261 32.2884C126.956 32.7446 126.591 33.1582 126.176 33.5182C125.699 33.9305 125.151 34.2526 124.558 34.4688C123.856 34.7308 123.112 34.8637 122.362 34.8611Z" fill="white"/>
<path d="M135.404 33.0129C135.918 33.0166 136.425 32.9029 136.888 32.6805C137.33 32.4749 137.715 32.1673 138.013 31.7831C138.305 31.3972 138.478 30.9355 138.513 30.4535H140.656C140.612 31.2422 140.337 32.0004 139.864 32.634C139.368 33.3119 138.721 33.8651 137.974 34.2494C137.18 34.6592 136.298 34.8692 135.404 34.861C134.51 34.8816 133.623 34.7021 132.808 34.3358C132.095 34.0039 131.469 33.5126 130.977 32.8999C130.489 32.2751 130.121 31.565 129.892 30.8058C129.654 29.9872 129.535 29.1387 129.539 28.2863V27.7744C129.535 26.9264 129.654 26.0823 129.892 25.2682C130.121 24.507 130.488 23.7948 130.977 23.1675C131.469 22.5548 132.095 22.0635 132.808 21.7316C133.623 21.3653 134.51 21.1858 135.404 21.2064C136.344 21.1859 137.274 21.4031 138.107 21.838C138.856 22.23 139.484 22.8183 139.924 23.5398C140.376 24.2734 140.628 25.1121 140.656 25.9729H138.513C138.477 25.4531 138.317 24.9494 138.047 24.5037C137.786 24.0673 137.417 23.7055 136.975 23.4534C136.498 23.1797 135.954 23.0418 135.404 23.0545C134.796 23.0353 134.194 23.1776 133.66 23.4667C133.2 23.7424 132.82 24.1316 132.555 24.5968C132.276 25.0683 132.078 25.5827 131.969 26.1191C131.854 26.6747 131.796 27.2404 131.796 27.8077V28.3196C131.797 28.8934 131.855 29.4657 131.969 30.028C132.071 30.5625 132.264 31.0753 132.541 31.5437C132.811 31.9967 133.191 32.3741 133.647 32.6406C134.19 32.9138 134.796 33.042 135.404 33.0129Z" fill="white"/>
<path d="M148.711 21.4458V23.1742H141.582V21.4458H148.711ZM143.998 18.2482H146.248V31.3576C146.23 31.7065 146.301 32.0544 146.455 32.3681C146.575 32.5766 146.766 32.7348 146.994 32.8135C147.221 32.8891 147.46 32.9273 147.699 32.9265C147.896 32.9244 148.092 32.9066 148.285 32.8733L148.758 32.7802V34.615C148.527 34.6868 148.291 34.7402 148.052 34.7746C147.71 34.8382 147.362 34.8672 147.014 34.861C146.489 34.866 145.97 34.7524 145.496 34.5286C145.015 34.2982 144.624 33.9147 144.384 33.4384C144.091 32.7806 143.954 32.0638 143.985 31.3443L143.998 18.2482Z" fill="white"/>
<path d="M159.423 31.577V21.4458H161.693V34.6151H159.536L159.423 31.577ZM159.849 28.7983H160.788C160.794 29.6198 160.7 30.4391 160.508 31.238C160.349 31.9312 160.05 32.5848 159.63 33.1592C159.213 33.7124 158.664 34.1515 158.032 34.4356C157.275 34.7558 156.457 34.91 155.635 34.8876C155.034 34.8943 154.435 34.7999 153.865 34.6084C153.35 34.4267 152.884 34.1313 152.5 33.7442C152.093 33.3103 151.79 32.7898 151.615 32.2219C151.394 31.4914 151.291 30.7309 151.308 29.9683V21.4458H153.565V29.9683C153.55 30.4652 153.615 30.9613 153.758 31.4374C153.87 31.7795 154.057 32.0927 154.304 32.3548C154.526 32.5639 154.792 32.7206 155.083 32.8135C155.376 32.9045 155.681 32.9494 155.988 32.9465C156.784 32.9888 157.575 32.7994 158.265 32.4014C158.815 32.0428 159.237 31.519 159.47 30.9056C159.73 30.2338 159.859 29.5185 159.849 28.7983Z" fill="white"/>
<path d="M167.384 23.5199V34.615H165.127V21.4458H167.317L167.384 23.5199ZM171.498 21.3726V23.4667C171.32 23.4306 171.139 23.4062 170.958 23.3936C170.799 23.3936 170.606 23.3936 170.399 23.3936C169.929 23.3848 169.461 23.4661 169.021 23.6329C168.64 23.78 168.295 24.0067 168.009 24.2977C167.721 24.5985 167.495 24.9532 167.344 25.3414C167.185 25.7696 167.082 26.2164 167.037 26.6709L166.405 27.0365C166.401 26.2836 166.48 25.5324 166.638 24.7962C166.781 24.1429 167.033 23.5182 167.384 22.9482C167.693 22.4269 168.128 21.9906 168.648 21.6784C169.212 21.3613 169.852 21.2028 170.499 21.2197C170.696 21.218 170.892 21.2359 171.085 21.2729C171.226 21.289 171.365 21.3225 171.498 21.3726Z" fill="white"/>
<path d="M180.871 32.3681V25.5874C180.879 25.1251 180.771 24.6683 180.558 24.2578C180.352 23.8649 180.026 23.5482 179.626 23.3537C179.148 23.1297 178.623 23.0226 178.095 23.0413C177.581 23.0274 177.069 23.1273 176.598 23.3338C176.204 23.5013 175.859 23.7641 175.592 24.0983C175.365 24.3916 175.241 24.7513 175.239 25.122H172.989C172.993 24.6314 173.119 24.1494 173.356 23.7193C173.618 23.2284 173.978 22.7962 174.414 22.4496C174.907 22.0503 175.469 21.744 176.072 21.5455C176.771 21.3117 177.504 21.1971 178.242 21.2065C179.112 21.188 179.976 21.3534 180.778 21.6918C181.491 21.9974 182.095 22.512 182.509 23.1676C182.954 23.9041 183.174 24.7544 183.141 25.614V31.7432C183.143 32.2127 183.178 32.6816 183.248 33.1459C183.314 33.584 183.432 34.0125 183.601 34.4223V34.6151H181.251C181.117 34.2849 181.027 33.9384 180.984 33.5847C180.916 33.1825 180.879 32.7759 180.871 32.3681ZM181.264 26.6311V28.2132H179.007C178.431 28.2072 177.855 28.2607 177.29 28.3728C176.845 28.4485 176.417 28.6015 176.025 28.8248C175.7 29.0063 175.43 29.27 175.239 29.5893C175.058 29.9118 174.966 30.2766 174.973 30.6463C174.968 31.0428 175.065 31.434 175.253 31.7831C175.445 32.1308 175.737 32.4133 176.092 32.5941C176.529 32.8028 177.011 32.9032 177.496 32.8866C178.093 32.8968 178.684 32.7653 179.219 32.503C179.755 32.2406 180.221 31.8549 180.578 31.3776C180.867 31.0273 181.046 30.5993 181.091 30.1477L182.056 31.2313C181.973 31.6359 181.815 32.0214 181.59 32.3681C181.313 32.8123 180.972 33.2133 180.578 33.5581C180.137 33.9474 179.635 34.2638 179.094 34.4954C178.484 34.7477 177.83 34.8721 177.17 34.861C176.353 34.8801 175.544 34.6998 174.813 34.3359C174.179 34.0171 173.641 33.5352 173.256 32.9398C172.889 32.3398 172.7 31.6484 172.71 30.9455C172.695 30.3008 172.836 29.6621 173.123 29.0841C173.4 28.5472 173.81 28.0896 174.314 27.7545C174.884 27.3653 175.52 27.0836 176.191 26.9236C176.993 26.7298 177.816 26.636 178.641 26.6444L181.264 26.6311Z" fill="white"/>
<path d="M58.9218 54V0" stroke="white"/>
<path d="M6.92328 24.9226L0 13.156L6.92328 1.38281H20.7898L27.7264 13.156L20.7898 24.9226H6.92328Z" fill="white"/>
<path d="M6.92328 52.6172L0 40.844L6.92994 29.0774H20.7898L27.7264 40.844L20.7898 52.6172H6.92328Z" fill="white"/>
<path d="M30.4964 38.7699L23.5665 27.0033L30.4964 15.2301H44.3629L51.2929 27.0033L44.3629 38.7699H30.4964Z" fill="white"/>
<path d="M75.6753 41.0769V46.7019H74.9941V41.0769H75.6753Z" fill="white"/>
<path d="M76.5836 44.7646V44.6804C76.5836 44.3948 76.6251 44.1299 76.7081 43.8857C76.7911 43.6392 76.9107 43.4255 77.067 43.2449C77.2232 43.0618 77.4124 42.9202 77.6346 42.8201C77.8567 42.7175 78.1058 42.6663 78.3817 42.6663C78.66 42.6663 78.9102 42.7175 79.1324 42.8201C79.357 42.9202 79.5474 43.0618 79.7037 43.2449C79.8624 43.4255 79.9832 43.6392 80.0662 43.8857C80.1492 44.1299 80.1907 44.3948 80.1907 44.6804V44.7646C80.1907 45.0503 80.1492 45.3152 80.0662 45.5593C79.9832 45.8035 79.8624 46.0171 79.7037 46.2002C79.5474 46.3809 79.3582 46.5225 79.136 46.625C78.9163 46.7251 78.6673 46.7751 78.389 46.7751C78.1107 46.7751 77.8604 46.7251 77.6382 46.625C77.4161 46.5225 77.2256 46.3809 77.067 46.2002C76.9107 46.0171 76.7911 45.8035 76.7081 45.5593C76.6251 45.3152 76.5836 45.0503 76.5836 44.7646ZM77.261 44.6804V44.7646C77.261 44.9624 77.2842 45.1492 77.3306 45.325C77.377 45.4983 77.4466 45.6521 77.5394 45.7864C77.6346 45.9207 77.753 46.0269 77.8946 46.105C78.0362 46.1807 78.201 46.2185 78.389 46.2185C78.5745 46.2185 78.7369 46.1807 78.876 46.105C79.0176 46.0269 79.1348 45.9207 79.2276 45.7864C79.3204 45.6521 79.39 45.4983 79.4363 45.325C79.4852 45.1492 79.5096 44.9624 79.5096 44.7646V44.6804C79.5096 44.4851 79.4852 44.3008 79.4363 44.1274C79.39 43.9517 79.3192 43.7966 79.2239 43.6624C79.1312 43.5256 79.014 43.4182 78.8724 43.3401C78.7332 43.262 78.5696 43.2229 78.3817 43.2229C78.1961 43.2229 78.0325 43.262 77.8909 43.3401C77.7518 43.4182 77.6346 43.5256 77.5394 43.6624C77.4466 43.7966 77.377 43.9517 77.3306 44.1274C77.2842 44.3008 77.261 44.4851 77.261 44.6804Z" fill="white"/>
<path d="M83.6074 42.7395H84.2226V46.6177C84.2226 46.9668 84.1518 47.2646 84.0102 47.5112C83.8686 47.7578 83.6709 47.9446 83.417 48.0715C83.1655 48.2009 82.875 48.2656 82.5454 48.2656C82.4087 48.2656 82.2475 48.2437 82.062 48.1997C81.8789 48.1582 81.6983 48.0862 81.5201 47.9836C81.3443 47.8835 81.1966 47.748 81.077 47.5771L81.4322 47.1743C81.5982 47.3745 81.7714 47.5137 81.9521 47.5918C82.1352 47.6699 82.3159 47.709 82.4941 47.709C82.7089 47.709 82.8946 47.6687 83.0508 47.5881C83.2071 47.5076 83.3278 47.3879 83.4133 47.2292C83.5012 47.073 83.5452 46.8801 83.5452 46.6506V43.6111L83.6074 42.7395ZM80.8792 44.7646V44.6877C80.8792 44.385 80.9146 44.1104 80.9854 43.8638C81.0587 43.6147 81.1623 43.4011 81.2966 43.2229C81.4333 43.0447 81.5981 42.908 81.791 42.8127C81.9838 42.7151 82.2011 42.6663 82.4428 42.6663C82.6919 42.6663 82.9091 42.7102 83.0947 42.7981C83.2827 42.8835 83.4414 43.0093 83.5708 43.1753C83.7026 43.3389 83.8064 43.5366 83.882 43.7686C83.9577 44.0005 84.0103 44.2629 84.0396 44.5559V44.8928C84.0128 45.1833 83.9602 45.4446 83.882 45.6765C83.8064 45.9084 83.7026 46.1062 83.5708 46.2698C83.4414 46.4333 83.2827 46.5591 83.0947 46.647C82.9067 46.7324 82.687 46.7751 82.4355 46.7751C82.1987 46.7751 81.9838 46.7251 81.791 46.625C81.6005 46.5249 81.437 46.3845 81.3003 46.2039C81.1635 46.0232 81.0587 45.8108 80.9854 45.5667C80.9146 45.3201 80.8792 45.0527 80.8792 44.7646ZM81.5566 44.6877V44.7646C81.5566 44.9624 81.5761 45.1479 81.6152 45.3213C81.6567 45.4946 81.719 45.6472 81.802 45.7791C81.8874 45.9109 81.9961 46.0146 82.1279 46.0903C82.2597 46.1636 82.4172 46.2002 82.6003 46.2002C82.8249 46.2002 83.0106 46.1526 83.157 46.0574C83.3035 45.9622 83.4194 45.8364 83.5048 45.6802C83.5927 45.5239 83.6611 45.3542 83.7099 45.1711V44.2886C83.6831 44.1543 83.6416 44.0249 83.5854 43.9004C83.5317 43.7734 83.4609 43.6611 83.373 43.5635C83.2876 43.4634 83.1815 43.384 83.0545 43.3254C82.9275 43.2668 82.7786 43.2375 82.6077 43.2375C82.4222 43.2375 82.2622 43.2766 82.1279 43.3547C81.9961 43.4304 81.8874 43.5354 81.802 43.6697C81.719 43.8015 81.6567 43.9553 81.6152 44.1311C81.5761 44.3044 81.5566 44.49 81.5566 44.6877Z" fill="white"/>
<path d="M85.9879 42.7395V46.7019H85.3067V42.7395H85.9879ZM85.2554 41.6885C85.2554 41.5786 85.2884 41.4858 85.3543 41.4102C85.4227 41.3345 85.5228 41.2966 85.6546 41.2966C85.784 41.2966 85.8829 41.3345 85.9512 41.4102C86.022 41.4858 86.0574 41.5786 86.0574 41.6885C86.0574 41.7935 86.022 41.8838 85.9512 41.9595C85.8829 42.0327 85.784 42.0693 85.6546 42.0693C85.5228 42.0693 85.4227 42.0327 85.3543 41.9595C85.2884 41.8838 85.2554 41.7935 85.2554 41.6885Z" fill="white"/>
<path d="M89.3825 45.6509C89.3825 45.5532 89.3606 45.4629 89.3166 45.3799C89.2751 45.2944 89.1884 45.2175 89.0566 45.1492C88.9272 45.0784 88.7319 45.0173 88.4707 44.9661C88.2509 44.9197 88.052 44.8647 87.8737 44.8013C87.698 44.7378 87.5478 44.6609 87.4233 44.5706C87.3012 44.4802 87.2072 44.374 87.1413 44.252C87.0754 44.1299 87.0424 43.9871 87.0424 43.8235C87.0424 43.6672 87.0766 43.5195 87.145 43.3804C87.2158 43.2412 87.3147 43.1179 87.4416 43.0105C87.571 42.9031 87.726 42.8188 87.9067 42.7578C88.0874 42.6968 88.2888 42.6663 88.5109 42.6663C88.8283 42.6663 89.0993 42.7224 89.3239 42.8347C89.5485 42.947 89.7207 43.0972 89.8403 43.2852C89.9599 43.4707 90.0197 43.677 90.0197 43.9041H89.3422C89.3422 43.7942 89.3093 43.688 89.2434 43.5854C89.1799 43.4805 89.0859 43.3938 88.9614 43.3254C88.8393 43.2571 88.6892 43.2229 88.5109 43.2229C88.323 43.2229 88.1704 43.2522 88.0532 43.3108C87.9384 43.3669 87.8542 43.439 87.8005 43.5269C87.7492 43.6147 87.7236 43.7075 87.7236 43.8052C87.7236 43.8784 87.7358 43.9443 87.7602 44.0029C87.7871 44.0591 87.8335 44.1116 87.8994 44.1604C87.9653 44.2068 88.0581 44.2507 88.1777 44.2922C88.2973 44.3337 88.4499 44.3752 88.6355 44.4167C88.9602 44.49 89.2275 44.5779 89.4375 44.6804C89.6474 44.783 89.8037 44.9087 89.9062 45.0576C90.0087 45.2065 90.06 45.3872 90.06 45.5996C90.06 45.7729 90.0234 45.9316 89.9502 46.0757C89.8794 46.2197 89.7756 46.3442 89.6389 46.4492C89.5046 46.5518 89.3435 46.6323 89.1555 46.6909C88.9699 46.7471 88.7612 46.7751 88.5293 46.7751C88.1801 46.7751 87.8847 46.7129 87.643 46.5884C87.4013 46.4639 87.2182 46.3027 87.0937 46.105C86.9692 45.9072 86.9069 45.6985 86.9069 45.4788H87.5881C87.5979 45.6643 87.6516 45.812 87.7492 45.9219C87.8469 46.0293 87.9665 46.1062 88.1081 46.1526C88.2497 46.1965 88.3901 46.2185 88.5293 46.2185C88.7148 46.2185 88.8698 46.1941 88.9943 46.1453C89.1213 46.0964 89.2177 46.0293 89.2837 45.9438C89.3496 45.8584 89.3825 45.7607 89.3825 45.6509Z" fill="white"/>
<path d="M92.6089 42.7395V43.2595H90.4666V42.7395H92.6089ZM91.1917 41.7764H91.8692V45.7205C91.8692 45.8547 91.89 45.9561 91.9315 46.0244C91.973 46.0928 92.0267 46.1379 92.0926 46.1599C92.1585 46.1819 92.2293 46.1929 92.305 46.1929C92.3611 46.1929 92.4197 46.188 92.4808 46.1782C92.5442 46.166 92.5919 46.1562 92.6236 46.1489L92.6273 46.7019C92.5735 46.719 92.5027 46.7349 92.4149 46.7495C92.3294 46.7666 92.2256 46.7751 92.1036 46.7751C91.9376 46.7751 91.785 46.7422 91.6458 46.6763C91.5067 46.6104 91.3956 46.5005 91.3126 46.3467C91.232 46.1904 91.1917 45.9805 91.1917 45.7168V41.7764Z" fill="white"/>
<path d="M94.1396 42.7395V46.7019H93.4585V42.7395H94.1396ZM93.4072 41.6885C93.4072 41.5786 93.4401 41.4858 93.5061 41.4102C93.5744 41.3345 93.6745 41.2966 93.8064 41.2966C93.9358 41.2966 94.0346 41.3345 94.103 41.4102C94.1738 41.4858 94.2092 41.5786 94.2092 41.6885C94.2092 41.7935 94.1738 41.8838 94.103 41.9595C94.0346 42.0327 93.9358 42.0693 93.8064 42.0693C93.6745 42.0693 93.5744 42.0327 93.5061 41.9595C93.4401 41.8838 93.4072 41.7935 93.4072 41.6885Z" fill="white"/>
<path d="M96.8129 46.2185C96.9741 46.2185 97.123 46.1855 97.2597 46.1196C97.3964 46.0537 97.5087 45.9634 97.5966 45.8486C97.6845 45.7314 97.7346 45.5984 97.7468 45.4495H98.3913C98.3791 45.6838 98.2998 45.9023 98.1533 46.105C98.0092 46.3052 97.82 46.4675 97.5857 46.592C97.3513 46.7141 97.0937 46.7751 96.8129 46.7751C96.5151 46.7751 96.2551 46.7227 96.0329 46.6177C95.8132 46.5127 95.6301 46.3687 95.4836 46.1855C95.3396 46.0024 95.2309 45.7925 95.1577 45.5557C95.0869 45.3164 95.0515 45.0637 95.0515 44.7976V44.6438C95.0515 44.3777 95.0869 44.1262 95.1577 43.8894C95.2309 43.6501 95.3396 43.439 95.4836 43.2559C95.6301 43.0728 95.8132 42.9287 96.0329 42.8237C96.2551 42.7188 96.5151 42.6663 96.8129 42.6663C97.123 42.6663 97.394 42.7297 97.6259 42.8567C97.8579 42.9812 98.0398 43.1521 98.1716 43.3694C98.3059 43.5842 98.3791 43.8284 98.3913 44.1018H97.7468C97.7346 43.9382 97.6882 43.7905 97.6076 43.6587C97.5295 43.5269 97.4221 43.4219 97.2854 43.3438C97.1511 43.2632 96.9936 43.2229 96.8129 43.2229C96.6054 43.2229 96.4309 43.2644 96.2893 43.3474C96.1501 43.428 96.039 43.5378 95.956 43.677C95.8754 43.8137 95.8169 43.9663 95.7802 44.1348C95.7461 44.3008 95.729 44.4705 95.729 44.6438V44.7976C95.729 44.9709 95.7461 45.1418 95.7802 45.3103C95.8144 45.4788 95.8718 45.6313 95.9524 45.7681C96.0354 45.9048 96.1464 46.0146 96.2856 46.0977C96.4272 46.1782 96.603 46.2185 96.8129 46.2185Z" fill="white"/>
<path d="M101.46 45.6509C101.46 45.5532 101.438 45.4629 101.394 45.3799C101.353 45.2944 101.266 45.2175 101.134 45.1492C101.005 45.0784 100.809 45.0173 100.548 44.9661C100.328 44.9197 100.129 44.8647 99.9514 44.8013C99.7756 44.7378 99.6254 44.6609 99.5009 44.5706C99.3789 44.4802 99.2849 44.374 99.219 44.252C99.153 44.1299 99.1201 43.9871 99.1201 43.8235C99.1201 43.6672 99.1543 43.5195 99.2226 43.3804C99.2934 43.2412 99.3923 43.1179 99.5192 43.0105C99.6486 42.9031 99.8037 42.8188 99.9843 42.7578C100.165 42.6968 100.366 42.6663 100.588 42.6663C100.906 42.6663 101.177 42.7224 101.401 42.8347C101.626 42.947 101.798 43.0972 101.918 43.2852C102.037 43.4707 102.097 43.677 102.097 43.9041H101.42C101.42 43.7942 101.387 43.688 101.321 43.5854C101.257 43.4805 101.163 43.3938 101.039 43.3254C100.917 43.2571 100.767 43.2229 100.588 43.2229C100.4 43.2229 100.248 43.2522 100.131 43.3108C100.016 43.3669 99.9318 43.439 99.8781 43.5269C99.8269 43.6147 99.8012 43.7075 99.8012 43.8052C99.8012 43.8784 99.8134 43.9443 99.8379 44.0029C99.8647 44.0591 99.9111 44.1116 99.977 44.1604C100.043 44.2068 100.136 44.2507 100.255 44.2922C100.375 44.3337 100.527 44.3752 100.713 44.4167C101.038 44.49 101.305 44.5779 101.515 44.6804C101.725 44.783 101.881 44.9087 101.984 45.0576C102.086 45.2065 102.138 45.3872 102.138 45.5996C102.138 45.7729 102.101 45.9316 102.028 46.0757C101.957 46.2197 101.853 46.3442 101.716 46.4492C101.582 46.5518 101.421 46.6323 101.233 46.6909C101.047 46.7471 100.839 46.7751 100.607 46.7751C100.258 46.7751 99.9624 46.7129 99.7207 46.5884C99.479 46.4639 99.2959 46.3027 99.1713 46.105C99.0468 45.9072 98.9846 45.6985 98.9846 45.4788H99.6657C99.6755 45.6643 99.7292 45.812 99.8269 45.9219C99.9245 46.0293 100.044 46.1062 100.186 46.1526C100.327 46.1965 100.468 46.2185 100.607 46.2185C100.792 46.2185 100.947 46.1941 101.072 46.1453C101.199 46.0964 101.295 46.0293 101.361 45.9438C101.427 45.8584 101.46 45.7607 101.46 45.6509Z" fill="white"/>
<path d="M105.748 41.3699V46.7019H105.042V41.3699H105.748Z" fill="white"/>
<path d="M108.894 41.3699V46.7019H108.198V41.3699H108.894ZM110.608 41.3699V41.9485H106.488V41.3699H110.608Z" fill="white"/>
<path d="M115.317 45.6509C115.317 45.5532 115.296 45.4629 115.252 45.3799C115.21 45.2944 115.123 45.2175 114.992 45.1492C114.862 45.0784 114.667 45.0173 114.406 44.9661C114.186 44.9197 113.987 44.8647 113.809 44.8013C113.633 44.7378 113.483 44.6609 113.358 44.5706C113.236 44.4802 113.142 44.374 113.076 44.252C113.01 44.1299 112.977 43.9871 112.977 43.8235C112.977 43.6672 113.012 43.5195 113.08 43.3804C113.151 43.2412 113.25 43.1179 113.377 43.0105C113.506 42.9031 113.661 42.8188 113.842 42.7578C114.022 42.6968 114.224 42.6663 114.446 42.6663C114.763 42.6663 115.034 42.7224 115.259 42.8347C115.484 42.947 115.656 43.0972 115.775 43.2852C115.895 43.4707 115.955 43.677 115.955 43.9041H115.277C115.277 43.7942 115.244 43.688 115.178 43.5854C115.115 43.4805 115.021 43.3938 114.896 43.3254C114.774 43.2571 114.624 43.2229 114.446 43.2229C114.258 43.2229 114.105 43.2522 113.988 43.3108C113.873 43.3669 113.789 43.439 113.735 43.5269C113.684 43.6147 113.659 43.7075 113.659 43.8052C113.659 43.8784 113.671 43.9443 113.695 44.0029C113.722 44.0591 113.768 44.1116 113.834 44.1604C113.9 44.2068 113.993 44.2507 114.113 44.2922C114.232 44.3337 114.385 44.3752 114.57 44.4167C114.895 44.49 115.162 44.5779 115.372 44.6804C115.582 44.783 115.739 44.9087 115.841 45.0576C115.944 45.2065 115.995 45.3872 115.995 45.5996C115.995 45.7729 115.958 45.9316 115.885 46.0757C115.814 46.2197 115.711 46.3442 115.574 46.4492C115.44 46.5518 115.278 46.6323 115.09 46.6909C114.905 46.7471 114.696 46.7751 114.464 46.7751C114.115 46.7751 113.82 46.7129 113.578 46.5884C113.336 46.4639 113.153 46.3027 113.029 46.105C112.904 45.9072 112.842 45.6985 112.842 45.4788H113.523C113.533 45.6643 113.587 45.812 113.684 45.9219C113.782 46.0293 113.901 46.1062 114.043 46.1526C114.185 46.1965 114.325 46.2185 114.464 46.2185C114.65 46.2185 114.805 46.1941 114.929 46.1453C115.056 46.0964 115.153 46.0293 115.219 45.9438C115.285 45.8584 115.317 45.7607 115.317 45.6509Z" fill="white"/>
<path d="M116.705 44.7646V44.6804C116.705 44.3948 116.747 44.1299 116.83 43.8857C116.913 43.6392 117.033 43.4255 117.189 43.2449C117.345 43.0618 117.534 42.9202 117.756 42.8201C117.979 42.7175 118.228 42.6663 118.504 42.6663C118.782 42.6663 119.032 42.7175 119.254 42.8201C119.479 42.9202 119.669 43.0618 119.826 43.2449C119.984 43.4255 120.105 43.6392 120.188 43.8857C120.271 44.1299 120.313 44.3948 120.313 44.6804V44.7646C120.313 45.0503 120.271 45.3152 120.188 45.5593C120.105 45.8035 119.984 46.0171 119.826 46.2002C119.669 46.3809 119.48 46.5225 119.258 46.625C119.038 46.7251 118.789 46.7751 118.511 46.7751C118.233 46.7751 117.982 46.7251 117.76 46.625C117.538 46.5225 117.348 46.3809 117.189 46.2002C117.033 46.0171 116.913 45.8035 116.83 45.5593C116.747 45.3152 116.705 45.0503 116.705 44.7646ZM117.383 44.6804V44.7646C117.383 44.9624 117.406 45.1492 117.452 45.325C117.499 45.4983 117.568 45.6521 117.661 45.7864C117.756 45.9207 117.875 46.0269 118.016 46.105C118.158 46.1807 118.323 46.2185 118.511 46.2185C118.696 46.2185 118.859 46.1807 118.998 46.105C119.14 46.0269 119.257 45.9207 119.349 45.7864C119.442 45.6521 119.512 45.4983 119.558 45.325C119.607 45.1492 119.631 44.9624 119.631 44.7646V44.6804C119.631 44.4851 119.607 44.3008 119.558 44.1274C119.512 43.9517 119.441 43.7966 119.346 43.6624C119.253 43.5256 119.136 43.4182 118.994 43.3401C118.855 43.262 118.692 43.2229 118.504 43.2229C118.318 43.2229 118.154 43.262 118.013 43.3401C117.874 43.4182 117.756 43.5256 117.661 43.6624C117.568 43.7966 117.499 43.9517 117.452 44.1274C117.406 44.3008 117.383 44.4851 117.383 44.6804Z" fill="white"/>
<path d="M122.173 46.7019H121.495V42.322C121.495 42.0364 121.547 41.7959 121.649 41.6006C121.754 41.4028 121.904 41.2539 122.1 41.1538C122.295 41.0513 122.527 41 122.796 41C122.874 41 122.952 41.0049 123.03 41.0146C123.11 41.0244 123.189 41.0391 123.264 41.0586L123.228 41.6116C123.176 41.5994 123.118 41.5908 123.052 41.5859C122.988 41.5811 122.925 41.5786 122.861 41.5786C122.717 41.5786 122.593 41.6079 122.488 41.6665C122.385 41.7227 122.307 41.8057 122.254 41.9155C122.2 42.0254 122.173 42.1609 122.173 42.322V46.7019ZM123.015 42.7395V43.2595H120.869V42.7395H123.015Z" fill="white"/>
<path d="M125.429 42.7395V43.2595H123.286V42.7395H125.429ZM124.011 41.7764H124.689V45.7205C124.689 45.8547 124.71 45.9561 124.751 46.0244C124.793 46.0928 124.846 46.1379 124.912 46.1599C124.978 46.1819 125.049 46.1929 125.125 46.1929C125.181 46.1929 125.239 46.188 125.3 46.1782C125.364 46.166 125.411 46.1562 125.443 46.1489L125.447 46.7019C125.393 46.719 125.322 46.7349 125.234 46.7495C125.149 46.7666 125.045 46.7751 124.923 46.7751C124.757 46.7751 124.605 46.7422 124.465 46.6763C124.326 46.6104 124.215 46.5005 124.132 46.3467C124.052 46.1904 124.011 45.9805 124.011 45.7168V41.7764Z" fill="white"/>
<path d="M127.227 45.9988L128.245 42.7395H128.692L128.604 43.3877L127.567 46.7019H127.131L127.227 45.9988ZM126.542 42.7395L127.41 46.0354L127.472 46.7019H127.014L125.864 42.7395H126.542ZM129.666 46.0098L130.493 42.7395H131.167L130.017 46.7019H129.563L129.666 46.0098ZM128.79 42.7395L129.786 45.9438L129.9 46.7019H129.468L128.402 43.3804L128.314 42.7395H128.79Z" fill="white"/>
<path d="M134.199 46.0244V43.9846C134.199 43.8284 134.168 43.6929 134.104 43.5781C134.043 43.4609 133.95 43.3706 133.826 43.3071C133.701 43.2437 133.547 43.2119 133.364 43.2119C133.193 43.2119 133.043 43.2412 132.914 43.2998C132.787 43.3584 132.687 43.4353 132.614 43.5305C132.543 43.6257 132.507 43.7283 132.507 43.8381H131.83C131.83 43.6965 131.867 43.5562 131.94 43.417C132.013 43.2778 132.118 43.1521 132.255 43.0398C132.394 42.925 132.56 42.8347 132.753 42.7688C132.948 42.7004 133.165 42.6663 133.405 42.6663C133.693 42.6663 133.947 42.7151 134.166 42.8127C134.389 42.9104 134.562 43.0581 134.686 43.2559C134.813 43.4512 134.877 43.6965 134.877 43.9919V45.8376C134.877 45.9695 134.888 46.1099 134.91 46.2588C134.934 46.4077 134.97 46.5359 135.016 46.6433V46.7019H134.309C134.275 46.6238 134.248 46.52 134.229 46.3906C134.209 46.2588 134.199 46.1367 134.199 46.0244ZM134.317 44.2996L134.324 44.7756H133.639C133.446 44.7756 133.274 44.7915 133.123 44.8232C132.971 44.8525 132.844 44.8977 132.742 44.9587C132.639 45.0198 132.561 45.0967 132.507 45.1895C132.454 45.2798 132.427 45.386 132.427 45.5081C132.427 45.6326 132.455 45.7461 132.511 45.8486C132.567 45.9512 132.651 46.033 132.764 46.094C132.879 46.1526 133.019 46.1819 133.185 46.1819C133.392 46.1819 133.576 46.1379 133.734 46.05C133.893 45.9622 134.019 45.8547 134.111 45.7278C134.207 45.6008 134.258 45.4775 134.265 45.3579L134.555 45.6838C134.537 45.7864 134.491 45.8999 134.415 46.0244C134.34 46.1489 134.238 46.2686 134.111 46.3833C133.987 46.4956 133.838 46.5896 133.665 46.6653C133.494 46.7385 133.301 46.7751 133.086 46.7751C132.817 46.7751 132.582 46.7227 132.379 46.6177C132.179 46.5127 132.023 46.3723 131.911 46.1965C131.801 46.0183 131.746 45.8193 131.746 45.5996C131.746 45.3872 131.787 45.2004 131.87 45.0393C131.953 44.8757 132.073 44.7402 132.229 44.6328C132.385 44.5229 132.573 44.4399 132.793 44.3838C133.013 44.3276 133.258 44.2996 133.529 44.2996H134.317Z" fill="white"/>
<path d="M136.62 43.3621V46.7019H135.942V42.7395H136.602L136.62 43.3621ZM137.858 42.7175L137.854 43.3474C137.798 43.3352 137.744 43.3279 137.693 43.3254C137.644 43.3206 137.588 43.3181 137.525 43.3181C137.368 43.3181 137.23 43.3425 137.111 43.3914C136.991 43.4402 136.89 43.5085 136.807 43.5964C136.724 43.6843 136.658 43.7893 136.609 43.9114C136.563 44.031 136.532 44.1628 136.517 44.3069L136.327 44.4167C136.327 44.1775 136.35 43.9529 136.397 43.7429C136.445 43.533 136.52 43.3474 136.62 43.1863C136.72 43.0227 136.847 42.8958 137.001 42.8054C137.157 42.7126 137.343 42.6663 137.557 42.6663C137.606 42.6663 137.662 42.6724 137.726 42.6846C137.789 42.6943 137.833 42.7053 137.858 42.7175Z" fill="white"/>
<path d="M140.055 46.7751C139.779 46.7751 139.529 46.7288 139.304 46.636C139.082 46.5408 138.89 46.4077 138.729 46.2368C138.571 46.0659 138.449 45.8633 138.363 45.6289C138.278 45.3945 138.235 45.1382 138.235 44.8599V44.7061C138.235 44.3838 138.283 44.0969 138.378 43.8455C138.473 43.5916 138.602 43.3767 138.766 43.2009C138.93 43.0251 139.115 42.8921 139.323 42.8018C139.53 42.7114 139.745 42.6663 139.967 42.6663C140.25 42.6663 140.494 42.7151 140.7 42.8127C140.907 42.9104 141.077 43.0471 141.209 43.2229C141.34 43.3962 141.438 43.6013 141.502 43.8381C141.565 44.0725 141.597 44.3289 141.597 44.6072V44.9111H138.638V44.3582H140.919V44.3069C140.91 44.1311 140.873 43.9602 140.809 43.7942C140.748 43.6282 140.651 43.4915 140.516 43.384C140.382 43.2766 140.199 43.2229 139.967 43.2229C139.813 43.2229 139.672 43.2559 139.542 43.3218C139.413 43.3853 139.302 43.4805 139.209 43.6074C139.116 43.7344 139.044 43.8894 138.993 44.0725C138.942 44.2556 138.916 44.4668 138.916 44.7061V44.8599C138.916 45.0479 138.942 45.2249 138.993 45.3909C139.047 45.5544 139.124 45.6985 139.224 45.823C139.326 45.9475 139.45 46.0452 139.594 46.116C139.74 46.1868 139.906 46.2222 140.092 46.2222C140.331 46.2222 140.534 46.1733 140.7 46.0757C140.866 45.978 141.011 45.8474 141.135 45.6838L141.546 46.0098C141.46 46.1392 141.351 46.2625 141.22 46.3796C141.088 46.4968 140.925 46.592 140.733 46.6653C140.542 46.7385 140.316 46.7751 140.055 46.7751Z" fill="white"/>
</svg>
