<svg width="184" height="54" viewBox="0 0 184 54" fill="none" xmlns="http://www.w3.org/2000/svg">
<path d="M77.3734 16.8987V34.615H75.0234V16.8987H77.3734Z" fill="#010101"/>
<path d="M87.8795 16.8987V34.615H85.5628V16.8987H87.8795ZM93.5845 16.8987V18.8199H79.8711V16.8987H93.5845Z" fill="#010101"/>
<path d="M107.611 31.9094L112.844 16.8788H115.387L108.816 34.5951H107.005L107.611 31.9094ZM102.725 16.8987L107.904 31.9094L108.57 34.5685H106.752L100.195 16.8522L102.725 16.8987Z" fill="#010101"/>
<path d="M122.368 34.8611C121.513 34.8743 120.664 34.716 119.871 34.3957C119.147 34.0897 118.494 33.637 117.954 33.0661C117.421 32.4878 117.007 31.8101 116.736 31.0718C116.446 30.2498 116.302 29.3838 116.31 28.5124V28.0005C116.293 27.0265 116.456 26.0576 116.789 25.142C117.072 24.3496 117.511 23.6218 118.08 23.0014C118.596 22.4323 119.227 21.9791 119.931 21.6718C120.606 21.3718 121.336 21.2177 122.075 21.2198C122.913 21.1966 123.746 21.3625 124.511 21.7051C125.181 22.0118 125.765 22.4801 126.209 23.0679C126.652 23.6786 126.973 24.3694 127.154 25.1021C127.374 25.935 127.482 26.7935 127.473 27.6548V28.6653H117.654V26.8305H125.243V26.6577C125.211 26.0747 125.088 25.5005 124.877 24.9558C124.689 24.419 124.352 23.9465 123.905 23.593C123.375 23.2082 122.729 23.018 122.075 23.0546C121.584 23.051 121.1 23.1649 120.663 23.387C120.221 23.6055 119.839 23.9298 119.552 24.331C119.223 24.8014 118.98 25.3256 118.833 25.8799C118.655 26.5658 118.57 27.2722 118.58 27.9806V28.4925C118.577 29.0911 118.662 29.6869 118.833 30.2608C119.001 30.7822 119.262 31.2688 119.605 31.6967C119.938 32.1054 120.356 32.4367 120.83 32.6673C121.348 32.91 121.915 33.0306 122.487 33.0196C123.185 33.0387 123.874 32.8712 124.485 32.5343C125.052 32.1918 125.545 31.7398 125.936 31.2048L127.267 32.2884C126.962 32.7446 126.597 33.1582 126.182 33.5182C125.705 33.9305 125.157 34.2526 124.564 34.4688C123.862 34.7308 123.118 34.8637 122.368 34.8611Z" fill="#010101"/>
<path d="M135.41 33.0129C135.924 33.0166 136.431 32.9029 136.894 32.6805C137.336 32.4749 137.721 32.1673 138.019 31.7831C138.311 31.3972 138.484 30.9355 138.519 30.4535H140.662C140.618 31.2422 140.343 32.0004 139.87 32.634C139.374 33.3119 138.727 33.8651 137.98 34.2494C137.186 34.6592 136.304 34.8692 135.41 34.861C134.516 34.8816 133.629 34.7021 132.814 34.3358C132.101 34.0039 131.475 33.5126 130.983 32.8999C130.495 32.2751 130.127 31.565 129.898 30.8058C129.66 29.9872 129.541 29.1387 129.545 28.2863V27.7744C129.541 26.9264 129.66 26.0823 129.898 25.2682C130.127 24.507 130.494 23.7948 130.983 23.1675C131.475 22.5548 132.101 22.0635 132.814 21.7316C133.629 21.3653 134.516 21.1858 135.41 21.2064C136.35 21.1859 137.28 21.4031 138.113 21.838C138.862 22.23 139.49 22.8183 139.93 23.5398C140.382 24.2734 140.634 25.1121 140.662 25.9729H138.519C138.483 25.4531 138.323 24.9494 138.053 24.5037C137.792 24.0673 137.423 23.7055 136.981 23.4534C136.504 23.1797 135.96 23.0418 135.41 23.0545C134.802 23.0353 134.2 23.1776 133.666 23.4667C133.206 23.7424 132.826 24.1316 132.561 24.5968C132.282 25.0683 132.084 25.5827 131.975 26.1191C131.86 26.6747 131.802 27.2404 131.802 27.8077V28.3196C131.803 28.8934 131.861 29.4657 131.975 30.028C132.077 30.5625 132.27 31.0753 132.547 31.5437C132.817 31.9967 133.197 32.3741 133.653 32.6406C134.196 32.9138 134.802 33.042 135.41 33.0129Z" fill="#010101"/>
<path d="M148.717 21.4458V23.1742H141.588V21.4458H148.717ZM144.004 18.2482H146.254V31.3576C146.236 31.7065 146.307 32.0544 146.461 32.3681C146.581 32.5766 146.772 32.7348 147 32.8135C147.227 32.8891 147.466 32.9273 147.705 32.9265C147.902 32.9244 148.098 32.9066 148.291 32.8733L148.764 32.7802V34.615C148.533 34.6868 148.297 34.7402 148.058 34.7746C147.716 34.8382 147.368 34.8672 147.02 34.861C146.495 34.866 145.976 34.7524 145.502 34.5286C145.021 34.2982 144.63 33.9147 144.39 33.4384C144.097 32.7806 143.96 32.0638 143.991 31.3443L144.004 18.2482Z" fill="#010101"/>
<path d="M159.429 31.577V21.4458H161.699V34.6151H159.542L159.429 31.577ZM159.855 28.7983H160.794C160.8 29.6198 160.706 30.4391 160.514 31.238C160.355 31.9312 160.056 32.5848 159.636 33.1592C159.219 33.7124 158.67 34.1515 158.038 34.4356C157.281 34.7558 156.463 34.91 155.641 34.8876C155.04 34.8943 154.441 34.7999 153.871 34.6084C153.356 34.4267 152.89 34.1313 152.506 33.7442C152.099 33.3103 151.796 32.7898 151.621 32.2219C151.4 31.4914 151.297 30.7309 151.314 29.9683V21.4458H153.571V29.9683C153.556 30.4652 153.621 30.9613 153.764 31.4374C153.876 31.7795 154.063 32.0927 154.31 32.3548C154.532 32.5639 154.798 32.7206 155.089 32.8135C155.382 32.9045 155.687 32.9494 155.994 32.9465C156.79 32.9888 157.581 32.7994 158.271 32.4014C158.821 32.0428 159.243 31.519 159.476 30.9056C159.736 30.2338 159.865 29.5185 159.855 28.7983Z" fill="#010101"/>
<path d="M167.39 23.5199V34.615H165.133V21.4458H167.323L167.39 23.5199ZM171.504 21.3726V23.4667C171.326 23.4306 171.145 23.4062 170.964 23.3936C170.805 23.3936 170.612 23.3936 170.405 23.3936C169.935 23.3848 169.467 23.4661 169.027 23.6329C168.646 23.78 168.301 24.0067 168.015 24.2977C167.727 24.5985 167.501 24.9532 167.35 25.3414C167.191 25.7696 167.088 26.2164 167.043 26.6709L166.411 27.0365C166.407 26.2836 166.486 25.5324 166.644 24.7962C166.787 24.1429 167.039 23.5182 167.39 22.9482C167.699 22.4269 168.134 21.9906 168.654 21.6784C169.218 21.3613 169.858 21.2028 170.505 21.2197C170.702 21.218 170.898 21.2359 171.091 21.2729C171.232 21.289 171.371 21.3225 171.504 21.3726Z" fill="#010101"/>
<path d="M180.877 32.3681V25.5874C180.885 25.1251 180.777 24.6683 180.564 24.2578C180.358 23.8649 180.032 23.5482 179.632 23.3537C179.154 23.1297 178.629 23.0226 178.101 23.0413C177.587 23.0274 177.075 23.1273 176.604 23.3338C176.21 23.5013 175.865 23.7641 175.598 24.0983C175.371 24.3916 175.247 24.7513 175.245 25.122H172.995C172.999 24.6314 173.125 24.1494 173.362 23.7193C173.624 23.2284 173.984 22.7962 174.42 22.4496C174.913 22.0503 175.475 21.744 176.078 21.5455C176.777 21.3117 177.51 21.1971 178.248 21.2065C179.118 21.188 179.982 21.3534 180.784 21.6918C181.497 21.9974 182.101 22.512 182.515 23.1676C182.96 23.9041 183.18 24.7544 183.147 25.614V31.7432C183.149 32.2127 183.184 32.6816 183.254 33.1459C183.32 33.584 183.438 34.0125 183.607 34.4223V34.6151H181.257C181.123 34.2849 181.033 33.9384 180.99 33.5847C180.922 33.1825 180.885 32.7759 180.877 32.3681ZM181.27 26.6311V28.2132H179.013C178.437 28.2072 177.861 28.2607 177.296 28.3728C176.851 28.4485 176.423 28.6015 176.031 28.8248C175.706 29.0063 175.436 29.27 175.245 29.5893C175.064 29.9118 174.972 30.2766 174.979 30.6463C174.974 31.0428 175.071 31.434 175.259 31.7831C175.451 32.1308 175.743 32.4133 176.098 32.5941C176.535 32.8028 177.017 32.9032 177.502 32.8866C178.099 32.8968 178.69 32.7653 179.225 32.503C179.761 32.2406 180.227 31.8549 180.584 31.3776C180.873 31.0273 181.052 30.5993 181.097 30.1477L182.062 31.2313C181.979 31.6359 181.821 32.0214 181.596 32.3681C181.319 32.8123 180.978 33.2133 180.584 33.5581C180.143 33.9474 179.641 34.2638 179.1 34.4954C178.49 34.7477 177.836 34.8721 177.176 34.861C176.359 34.8801 175.55 34.6998 174.819 34.3359C174.185 34.0171 173.647 33.5352 173.262 32.9398C172.895 32.3398 172.706 31.6484 172.716 30.9455C172.701 30.3008 172.842 29.6621 173.129 29.0841C173.406 28.5472 173.816 28.0896 174.32 27.7545C174.89 27.3653 175.526 27.0836 176.197 26.9236C176.999 26.7298 177.822 26.636 178.647 26.6444L181.27 26.6311Z" fill="#010101"/>
<path d="M58.9277 54V0" stroke="#010101"/>
<path d="M6.92914 24.9226L0.00585938 13.156L6.92914 1.38281H20.7957L27.7323 13.156L20.7957 24.9226H6.92914Z" fill="#014269"/>
<path d="M6.92914 52.6172L0.00585938 40.844L6.9358 29.0774H20.7957L27.7323 40.844L20.7957 52.6172H6.92914Z" fill="#014269"/>
<path d="M30.5023 38.7699L23.5724 27.0033L30.5023 15.2301H44.3688L51.2988 27.0033L44.3688 38.7699H30.5023Z" fill="#014269"/>
<path d="M75.6812 41.0769V46.7019H75V41.0769H75.6812Z" fill="black"/>
<path d="M76.5894 44.7646V44.6804C76.5894 44.3948 76.6309 44.1299 76.7139 43.8857C76.7969 43.6392 76.9165 43.4255 77.0728 43.2449C77.229 43.0618 77.4182 42.9202 77.6404 42.8201C77.8625 42.7175 78.1116 42.6663 78.3875 42.6663C78.6658 42.6663 78.916 42.7175 79.1382 42.8201C79.3628 42.9202 79.5532 43.0618 79.7095 43.2449C79.8682 43.4255 79.989 43.6392 80.072 43.8857C80.155 44.1299 80.1965 44.3948 80.1965 44.6804V44.7646C80.1965 45.0503 80.155 45.3152 80.072 45.5593C79.989 45.8035 79.8682 46.0171 79.7095 46.2002C79.5532 46.3809 79.364 46.5225 79.1418 46.625C78.9221 46.7251 78.6731 46.7751 78.3948 46.7751C78.1165 46.7751 77.8662 46.7251 77.644 46.625C77.4219 46.5225 77.2314 46.3809 77.0728 46.2002C76.9165 46.0171 76.7969 45.8035 76.7139 45.5593C76.6309 45.3152 76.5894 45.0503 76.5894 44.7646ZM77.2668 44.6804V44.7646C77.2668 44.9624 77.29 45.1492 77.3364 45.325C77.3828 45.4983 77.4524 45.6521 77.5452 45.7864C77.6404 45.9207 77.7588 46.0269 77.9004 46.105C78.042 46.1807 78.2068 46.2185 78.3948 46.2185C78.5803 46.2185 78.7427 46.1807 78.8818 46.105C79.0234 46.0269 79.1406 45.9207 79.2334 45.7864C79.3262 45.6521 79.3958 45.4983 79.4421 45.325C79.491 45.1492 79.5154 44.9624 79.5154 44.7646V44.6804C79.5154 44.4851 79.491 44.3008 79.4421 44.1274C79.3958 43.9517 79.325 43.7966 79.2297 43.6624C79.137 43.5256 79.0198 43.4182 78.8782 43.3401C78.739 43.262 78.5754 43.2229 78.3875 43.2229C78.2019 43.2229 78.0383 43.262 77.8967 43.3401C77.7576 43.4182 77.6404 43.5256 77.5452 43.6624C77.4524 43.7966 77.3828 43.9517 77.3364 44.1274C77.29 44.3008 77.2668 44.4851 77.2668 44.6804Z" fill="black"/>
<path d="M83.6133 42.7395H84.2285V46.6177C84.2285 46.9668 84.1577 47.2646 84.0161 47.5112C83.8745 47.7578 83.6768 47.9446 83.4229 48.0715C83.1714 48.2009 82.8809 48.2656 82.5513 48.2656C82.4146 48.2656 82.2534 48.2437 82.0679 48.1997C81.8848 48.1582 81.7041 48.0862 81.5259 47.9836C81.3501 47.8835 81.2024 47.748 81.0828 47.5771L81.438 47.1743C81.604 47.3745 81.7773 47.5137 81.958 47.5918C82.1411 47.6699 82.3218 47.709 82.5 47.709C82.7148 47.709 82.9004 47.6687 83.0566 47.5881C83.2129 47.5076 83.3337 47.3879 83.4192 47.2292C83.5071 47.073 83.551 46.8801 83.551 46.6506V43.6111L83.6133 42.7395ZM80.885 44.7646V44.6877C80.885 44.385 80.9204 44.1104 80.9912 43.8638C81.0645 43.6147 81.1682 43.4011 81.3025 43.2229C81.4392 43.0447 81.604 42.908 81.7969 42.8127C81.9897 42.7151 82.207 42.6663 82.4487 42.6663C82.6978 42.6663 82.915 42.7102 83.1006 42.7981C83.2886 42.8835 83.4473 43.0093 83.5767 43.1753C83.7085 43.3389 83.8123 43.5366 83.8879 43.7686C83.9636 44.0005 84.0161 44.2629 84.0454 44.5559V44.8928C84.0186 45.1833 83.9661 45.4446 83.8879 45.6765C83.8123 45.9084 83.7085 46.1062 83.5767 46.2698C83.4473 46.4333 83.2886 46.5591 83.1006 46.647C82.9126 46.7324 82.6929 46.7751 82.4414 46.7751C82.2046 46.7751 81.9897 46.7251 81.7969 46.625C81.6064 46.5249 81.4429 46.3845 81.3062 46.2039C81.1694 46.0232 81.0645 45.8108 80.9912 45.5667C80.9204 45.3201 80.885 45.0527 80.885 44.7646ZM81.5625 44.6877V44.7646C81.5625 44.9624 81.582 45.1479 81.6211 45.3213C81.6626 45.4946 81.7249 45.6472 81.8079 45.7791C81.8933 45.9109 82.002 46.0146 82.1338 46.0903C82.2656 46.1636 82.4231 46.2002 82.6062 46.2002C82.8308 46.2002 83.0164 46.1526 83.1628 46.0574C83.3093 45.9622 83.4253 45.8364 83.5107 45.6802C83.5986 45.5239 83.667 45.3542 83.7158 45.1711V44.2886C83.689 44.1543 83.6475 44.0249 83.5913 43.9004C83.5376 43.7734 83.4668 43.6611 83.3789 43.5635C83.2935 43.4634 83.1873 43.384 83.0603 43.3254C82.9333 43.2668 82.7844 43.2375 82.6135 43.2375C82.428 43.2375 82.2681 43.2766 82.1338 43.3547C82.002 43.4304 81.8933 43.5354 81.8079 43.6697C81.7249 43.8015 81.6626 43.9553 81.6211 44.1311C81.582 44.3044 81.5625 44.49 81.5625 44.6877Z" fill="black"/>
<path d="M85.9937 42.7395V46.7019H85.3125V42.7395H85.9937ZM85.2612 41.6885C85.2612 41.5786 85.2942 41.4858 85.3601 41.4102C85.4285 41.3345 85.5286 41.2966 85.6604 41.2966C85.7898 41.2966 85.8887 41.3345 85.957 41.4102C86.0278 41.4858 86.0632 41.5786 86.0632 41.6885C86.0632 41.7935 86.0278 41.8838 85.957 41.9595C85.8887 42.0327 85.7898 42.0693 85.6604 42.0693C85.5286 42.0693 85.4285 42.0327 85.3601 41.9595C85.2942 41.8838 85.2612 41.7935 85.2612 41.6885Z" fill="black"/>
<path d="M89.3884 45.6509C89.3884 45.5532 89.3665 45.4629 89.3225 45.3799C89.281 45.2944 89.1943 45.2175 89.0625 45.1492C88.9331 45.0784 88.7378 45.0173 88.4766 44.9661C88.2568 44.9197 88.0579 44.8647 87.8796 44.8013C87.7039 44.7378 87.5537 44.6609 87.4292 44.5706C87.3071 44.4802 87.2131 44.374 87.1472 44.252C87.0813 44.1299 87.0483 43.9871 87.0483 43.8235C87.0483 43.6672 87.0825 43.5195 87.1509 43.3804C87.2217 43.2412 87.3206 43.1179 87.4475 43.0105C87.5769 42.9031 87.7319 42.8188 87.9126 42.7578C88.0933 42.6968 88.2947 42.6663 88.5168 42.6663C88.8342 42.6663 89.1052 42.7224 89.3298 42.8347C89.5544 42.947 89.7266 43.0972 89.8462 43.2852C89.9658 43.4707 90.0256 43.677 90.0256 43.9041H89.3481C89.3481 43.7942 89.3152 43.688 89.2493 43.5854C89.1858 43.4805 89.0918 43.3938 88.9673 43.3254C88.8452 43.2571 88.6951 43.2229 88.5168 43.2229C88.3289 43.2229 88.1763 43.2522 88.0591 43.3108C87.9443 43.3669 87.8601 43.439 87.8064 43.5269C87.7551 43.6147 87.7295 43.7075 87.7295 43.8052C87.7295 43.8784 87.7417 43.9443 87.7661 44.0029C87.793 44.0591 87.8394 44.1116 87.9053 44.1604C87.9712 44.2068 88.064 44.2507 88.1836 44.2922C88.3032 44.3337 88.4558 44.3752 88.6414 44.4167C88.9661 44.49 89.2334 44.5779 89.4434 44.6804C89.6533 44.783 89.8096 44.9087 89.9121 45.0576C90.0146 45.2065 90.0659 45.3872 90.0659 45.5996C90.0659 45.7729 90.0293 45.9316 89.9561 46.0757C89.8853 46.2197 89.7815 46.3442 89.6448 46.4492C89.5105 46.5518 89.3494 46.6323 89.1614 46.6909C88.9758 46.7471 88.7671 46.7751 88.5352 46.7751C88.186 46.7751 87.8906 46.7129 87.6489 46.5884C87.4072 46.4639 87.2241 46.3027 87.0996 46.105C86.9751 45.9072 86.9128 45.6985 86.9128 45.4788H87.594C87.6038 45.6643 87.6575 45.812 87.7551 45.9219C87.8528 46.0293 87.9724 46.1062 88.114 46.1526C88.2556 46.1965 88.396 46.2185 88.5352 46.2185C88.7207 46.2185 88.8757 46.1941 89.0002 46.1453C89.1272 46.0964 89.2236 46.0293 89.2896 45.9438C89.3555 45.8584 89.3884 45.7607 89.3884 45.6509Z" fill="black"/>
<path d="M92.6147 42.7395V43.2595H90.4724V42.7395H92.6147ZM91.1975 41.7764H91.875V45.7205C91.875 45.8547 91.8958 45.9561 91.9373 46.0244C91.9788 46.0928 92.0325 46.1379 92.0984 46.1599C92.1643 46.1819 92.2351 46.1929 92.3108 46.1929C92.3669 46.1929 92.4255 46.188 92.4866 46.1782C92.55 46.166 92.5977 46.1562 92.6294 46.1489L92.6331 46.7019C92.5793 46.719 92.5085 46.7349 92.4207 46.7495C92.3352 46.7666 92.2314 46.7751 92.1094 46.7751C91.9434 46.7751 91.7908 46.7422 91.6516 46.6763C91.5125 46.6104 91.4014 46.5005 91.3184 46.3467C91.2378 46.1904 91.1975 45.9805 91.1975 45.7168V41.7764Z" fill="black"/>
<path d="M94.1455 42.7395V46.7019H93.4644V42.7395H94.1455ZM93.4131 41.6885C93.4131 41.5786 93.446 41.4858 93.512 41.4102C93.5803 41.3345 93.6804 41.2966 93.8123 41.2966C93.9417 41.2966 94.0405 41.3345 94.1089 41.4102C94.1797 41.4858 94.2151 41.5786 94.2151 41.6885C94.2151 41.7935 94.1797 41.8838 94.1089 41.9595C94.0405 42.0327 93.9417 42.0693 93.8123 42.0693C93.6804 42.0693 93.5803 42.0327 93.512 41.9595C93.446 41.8838 93.4131 41.7935 93.4131 41.6885Z" fill="black"/>
<path d="M96.8188 46.2185C96.98 46.2185 97.1289 46.1855 97.2656 46.1196C97.4023 46.0537 97.5146 45.9634 97.6025 45.8486C97.6904 45.7314 97.7405 45.5984 97.7527 45.4495H98.3972C98.385 45.6838 98.3057 45.9023 98.1592 46.105C98.0151 46.3052 97.8259 46.4675 97.5916 46.592C97.3572 46.7141 97.0996 46.7751 96.8188 46.7751C96.521 46.7751 96.261 46.7227 96.0388 46.6177C95.8191 46.5127 95.636 46.3687 95.4895 46.1855C95.3455 46.0024 95.2368 45.7925 95.1636 45.5557C95.0928 45.3164 95.0574 45.0637 95.0574 44.7976V44.6438C95.0574 44.3777 95.0928 44.1262 95.1636 43.8894C95.2368 43.6501 95.3455 43.439 95.4895 43.2559C95.636 43.0728 95.8191 42.9287 96.0388 42.8237C96.261 42.7188 96.521 42.6663 96.8188 42.6663C97.1289 42.6663 97.3999 42.7297 97.6318 42.8567C97.8638 42.9812 98.0457 43.1521 98.1775 43.3694C98.3118 43.5842 98.385 43.8284 98.3972 44.1018H97.7527C97.7405 43.9382 97.6941 43.7905 97.6135 43.6587C97.5354 43.5269 97.428 43.4219 97.2913 43.3438C97.157 43.2632 96.9995 43.2229 96.8188 43.2229C96.6113 43.2229 96.4368 43.2644 96.2952 43.3474C96.156 43.428 96.0449 43.5378 95.9619 43.677C95.8813 43.8137 95.8228 43.9663 95.7861 44.1348C95.752 44.3008 95.7349 44.4705 95.7349 44.6438V44.7976C95.7349 44.9709 95.752 45.1418 95.7861 45.3103C95.8203 45.4788 95.8777 45.6313 95.9583 45.7681C96.0413 45.9048 96.1523 46.0146 96.2915 46.0977C96.4331 46.1782 96.6089 46.2185 96.8188 46.2185Z" fill="black"/>
<path d="M101.466 45.6509C101.466 45.5532 101.444 45.4629 101.4 45.3799C101.359 45.2944 101.272 45.2175 101.14 45.1492C101.011 45.0784 100.815 45.0173 100.554 44.9661C100.334 44.9197 100.135 44.8647 99.9573 44.8013C99.7815 44.7378 99.6313 44.6609 99.5068 44.5706C99.3848 44.4802 99.2908 44.374 99.2249 44.252C99.1589 44.1299 99.126 43.9871 99.126 43.8235C99.126 43.6672 99.1602 43.5195 99.2285 43.3804C99.2993 43.2412 99.3982 43.1179 99.5251 43.0105C99.6545 42.9031 99.8096 42.8188 99.9902 42.7578C100.171 42.6968 100.372 42.6663 100.594 42.6663C100.912 42.6663 101.183 42.7224 101.407 42.8347C101.632 42.947 101.804 43.0972 101.924 43.2852C102.043 43.4707 102.103 43.677 102.103 43.9041H101.426C101.426 43.7942 101.393 43.688 101.327 43.5854C101.263 43.4805 101.169 43.3938 101.045 43.3254C100.923 43.2571 100.773 43.2229 100.594 43.2229C100.406 43.2229 100.254 43.2522 100.137 43.3108C100.022 43.3669 99.9377 43.439 99.884 43.5269C99.8328 43.6147 99.8071 43.7075 99.8071 43.8052C99.8071 43.8784 99.8193 43.9443 99.8438 44.0029C99.8706 44.0591 99.917 44.1116 99.9829 44.1604C100.049 44.2068 100.142 44.2507 100.261 44.2922C100.381 44.3337 100.533 44.3752 100.719 44.4167C101.044 44.49 101.311 44.5779 101.521 44.6804C101.731 44.783 101.887 44.9087 101.99 45.0576C102.092 45.2065 102.144 45.3872 102.144 45.5996C102.144 45.7729 102.107 45.9316 102.034 46.0757C101.963 46.2197 101.859 46.3442 101.722 46.4492C101.588 46.5518 101.427 46.6323 101.239 46.6909C101.053 46.7471 100.845 46.7751 100.613 46.7751C100.264 46.7751 99.9683 46.7129 99.7266 46.5884C99.4849 46.4639 99.3018 46.3027 99.1772 46.105C99.0527 45.9072 98.9905 45.6985 98.9905 45.4788H99.6716C99.6814 45.6643 99.7351 45.812 99.8328 45.9219C99.9304 46.0293 100.05 46.1062 100.192 46.1526C100.333 46.1965 100.474 46.2185 100.613 46.2185C100.798 46.2185 100.953 46.1941 101.078 46.1453C101.205 46.0964 101.301 46.0293 101.367 45.9438C101.433 45.8584 101.466 45.7607 101.466 45.6509Z" fill="black"/>
<path d="M105.754 41.3699V46.7019H105.048V41.3699H105.754Z" fill="black"/>
<path d="M108.9 41.3699V46.7019H108.204V41.3699H108.9ZM110.614 41.3699V41.9485H106.494V41.3699H110.614Z" fill="black"/>
<path d="M115.323 45.6509C115.323 45.5532 115.302 45.4629 115.258 45.3799C115.216 45.2944 115.129 45.2175 114.998 45.1492C114.868 45.0784 114.673 45.0173 114.412 44.9661C114.192 44.9197 113.993 44.8647 113.815 44.8013C113.639 44.7378 113.489 44.6609 113.364 44.5706C113.242 44.4802 113.148 44.374 113.082 44.252C113.016 44.1299 112.983 43.9871 112.983 43.8235C112.983 43.6672 113.018 43.5195 113.086 43.3804C113.157 43.2412 113.256 43.1179 113.383 43.0105C113.512 42.9031 113.667 42.8188 113.848 42.7578C114.028 42.6968 114.23 42.6663 114.452 42.6663C114.769 42.6663 115.04 42.7224 115.265 42.8347C115.49 42.947 115.662 43.0972 115.781 43.2852C115.901 43.4707 115.961 43.677 115.961 43.9041H115.283C115.283 43.7942 115.25 43.688 115.184 43.5854C115.121 43.4805 115.027 43.3938 114.902 43.3254C114.78 43.2571 114.63 43.2229 114.452 43.2229C114.264 43.2229 114.111 43.2522 113.994 43.3108C113.879 43.3669 113.795 43.439 113.741 43.5269C113.69 43.6147 113.665 43.7075 113.665 43.8052C113.665 43.8784 113.677 43.9443 113.701 44.0029C113.728 44.0591 113.774 44.1116 113.84 44.1604C113.906 44.2068 113.999 44.2507 114.119 44.2922C114.238 44.3337 114.391 44.3752 114.576 44.4167C114.901 44.49 115.168 44.5779 115.378 44.6804C115.588 44.783 115.745 44.9087 115.847 45.0576C115.95 45.2065 116.001 45.3872 116.001 45.5996C116.001 45.7729 115.964 45.9316 115.891 46.0757C115.82 46.2197 115.717 46.3442 115.58 46.4492C115.446 46.5518 115.284 46.6323 115.096 46.6909C114.911 46.7471 114.702 46.7751 114.47 46.7751C114.121 46.7751 113.826 46.7129 113.584 46.5884C113.342 46.4639 113.159 46.3027 113.035 46.105C112.91 45.9072 112.848 45.6985 112.848 45.4788H113.529C113.539 45.6643 113.593 45.812 113.69 45.9219C113.788 46.0293 113.907 46.1062 114.049 46.1526C114.191 46.1965 114.331 46.2185 114.47 46.2185C114.656 46.2185 114.811 46.1941 114.935 46.1453C115.062 46.0964 115.159 46.0293 115.225 45.9438C115.291 45.8584 115.323 45.7607 115.323 45.6509Z" fill="black"/>
<path d="M116.711 44.7646V44.6804C116.711 44.3948 116.753 44.1299 116.836 43.8857C116.919 43.6392 117.039 43.4255 117.195 43.2449C117.351 43.0618 117.54 42.9202 117.762 42.8201C117.985 42.7175 118.234 42.6663 118.51 42.6663C118.788 42.6663 119.038 42.7175 119.26 42.8201C119.485 42.9202 119.675 43.0618 119.832 43.2449C119.99 43.4255 120.111 43.6392 120.194 43.8857C120.277 44.1299 120.319 44.3948 120.319 44.6804V44.7646C120.319 45.0503 120.277 45.3152 120.194 45.5593C120.111 45.8035 119.99 46.0171 119.832 46.2002C119.675 46.3809 119.486 46.5225 119.264 46.625C119.044 46.7251 118.795 46.7751 118.517 46.7751C118.239 46.7751 117.988 46.7251 117.766 46.625C117.544 46.5225 117.354 46.3809 117.195 46.2002C117.039 46.0171 116.919 45.8035 116.836 45.5593C116.753 45.3152 116.711 45.0503 116.711 44.7646ZM117.389 44.6804V44.7646C117.389 44.9624 117.412 45.1492 117.458 45.325C117.505 45.4983 117.574 45.6521 117.667 45.7864C117.762 45.9207 117.881 46.0269 118.022 46.105C118.164 46.1807 118.329 46.2185 118.517 46.2185C118.702 46.2185 118.865 46.1807 119.004 46.105C119.146 46.0269 119.263 45.9207 119.355 45.7864C119.448 45.6521 119.518 45.4983 119.564 45.325C119.613 45.1492 119.637 44.9624 119.637 44.7646V44.6804C119.637 44.4851 119.613 44.3008 119.564 44.1274C119.518 43.9517 119.447 43.7966 119.352 43.6624C119.259 43.5256 119.142 43.4182 119 43.3401C118.861 43.262 118.698 43.2229 118.51 43.2229C118.324 43.2229 118.16 43.262 118.019 43.3401C117.88 43.4182 117.762 43.5256 117.667 43.6624C117.574 43.7966 117.505 43.9517 117.458 44.1274C117.412 44.3008 117.389 44.4851 117.389 44.6804Z" fill="black"/>
<path d="M122.179 46.7019H121.501V42.322C121.501 42.0364 121.553 41.7959 121.655 41.6006C121.76 41.4028 121.91 41.2539 122.106 41.1538C122.301 41.0513 122.533 41 122.802 41C122.88 41 122.958 41.0049 123.036 41.0146C123.116 41.0244 123.195 41.0391 123.27 41.0586L123.234 41.6116C123.182 41.5994 123.124 41.5908 123.058 41.5859C122.994 41.5811 122.931 41.5786 122.867 41.5786C122.723 41.5786 122.599 41.6079 122.494 41.6665C122.391 41.7227 122.313 41.8057 122.26 41.9155C122.206 42.0254 122.179 42.1609 122.179 42.322V46.7019ZM123.021 42.7395V43.2595H120.875V42.7395H123.021Z" fill="black"/>
<path d="M125.435 42.7395V43.2595H123.292V42.7395H125.435ZM124.017 41.7764H124.695V45.7205C124.695 45.8547 124.716 45.9561 124.757 46.0244C124.799 46.0928 124.852 46.1379 124.918 46.1599C124.984 46.1819 125.055 46.1929 125.131 46.1929C125.187 46.1929 125.245 46.188 125.306 46.1782C125.37 46.166 125.417 46.1562 125.449 46.1489L125.453 46.7019C125.399 46.719 125.328 46.7349 125.24 46.7495C125.155 46.7666 125.051 46.7751 124.929 46.7751C124.763 46.7751 124.611 46.7422 124.471 46.6763C124.332 46.6104 124.221 46.5005 124.138 46.3467C124.058 46.1904 124.017 45.9805 124.017 45.7168V41.7764Z" fill="black"/>
<path d="M127.233 45.9988L128.251 42.7395H128.698L128.61 43.3877L127.573 46.7019H127.137L127.233 45.9988ZM126.548 42.7395L127.416 46.0354L127.478 46.7019H127.02L125.87 42.7395H126.548ZM129.672 46.0098L130.499 42.7395H131.173L130.023 46.7019H129.569L129.672 46.0098ZM128.796 42.7395L129.792 45.9438L129.906 46.7019H129.474L128.408 43.3804L128.32 42.7395H128.796Z" fill="black"/>
<path d="M134.205 46.0244V43.9846C134.205 43.8284 134.174 43.6929 134.11 43.5781C134.049 43.4609 133.956 43.3706 133.832 43.3071C133.707 43.2437 133.553 43.2119 133.37 43.2119C133.199 43.2119 133.049 43.2412 132.92 43.2998C132.793 43.3584 132.693 43.4353 132.62 43.5305C132.549 43.6257 132.513 43.7283 132.513 43.8381H131.836C131.836 43.6965 131.873 43.5562 131.946 43.417C132.019 43.2778 132.124 43.1521 132.261 43.0398C132.4 42.925 132.566 42.8347 132.759 42.7688C132.954 42.7004 133.171 42.6663 133.411 42.6663C133.699 42.6663 133.953 42.7151 134.172 42.8127C134.395 42.9104 134.568 43.0581 134.692 43.2559C134.819 43.4512 134.883 43.6965 134.883 43.9919V45.8376C134.883 45.9695 134.894 46.1099 134.916 46.2588C134.94 46.4077 134.976 46.5359 135.022 46.6433V46.7019H134.315C134.281 46.6238 134.254 46.52 134.235 46.3906C134.215 46.2588 134.205 46.1367 134.205 46.0244ZM134.323 44.2996L134.33 44.7756H133.645C133.452 44.7756 133.28 44.7915 133.129 44.8232C132.977 44.8525 132.85 44.8977 132.748 44.9587C132.645 45.0198 132.567 45.0967 132.513 45.1895C132.46 45.2798 132.433 45.386 132.433 45.5081C132.433 45.6326 132.461 45.7461 132.517 45.8486C132.573 45.9512 132.657 46.033 132.77 46.094C132.885 46.1526 133.025 46.1819 133.191 46.1819C133.398 46.1819 133.582 46.1379 133.74 46.05C133.899 45.9622 134.025 45.8547 134.117 45.7278C134.213 45.6008 134.264 45.4775 134.271 45.3579L134.561 45.6838C134.543 45.7864 134.497 45.8999 134.421 46.0244C134.346 46.1489 134.244 46.2686 134.117 46.3833C133.993 46.4956 133.844 46.5896 133.671 46.6653C133.5 46.7385 133.307 46.7751 133.092 46.7751C132.823 46.7751 132.588 46.7227 132.385 46.6177C132.185 46.5127 132.029 46.3723 131.917 46.1965C131.807 46.0183 131.752 45.8193 131.752 45.5996C131.752 45.3872 131.793 45.2004 131.876 45.0393C131.959 44.8757 132.079 44.7402 132.235 44.6328C132.391 44.5229 132.579 44.4399 132.799 44.3838C133.019 44.3276 133.264 44.2996 133.535 44.2996H134.323Z" fill="black"/>
<path d="M136.626 43.3621V46.7019H135.948V42.7395H136.608L136.626 43.3621ZM137.864 42.7175L137.86 43.3474C137.804 43.3352 137.75 43.3279 137.699 43.3254C137.65 43.3206 137.594 43.3181 137.531 43.3181C137.374 43.3181 137.236 43.3425 137.117 43.3914C136.997 43.4402 136.896 43.5085 136.813 43.5964C136.73 43.6843 136.664 43.7893 136.615 43.9114C136.569 44.031 136.538 44.1628 136.523 44.3069L136.333 44.4167C136.333 44.1775 136.356 43.9529 136.403 43.7429C136.451 43.533 136.526 43.3474 136.626 43.1863C136.726 43.0227 136.853 42.8958 137.007 42.8054C137.163 42.7126 137.349 42.6663 137.563 42.6663C137.612 42.6663 137.668 42.6724 137.732 42.6846C137.795 42.6943 137.839 42.7053 137.864 42.7175Z" fill="black"/>
<path d="M140.061 46.7751C139.785 46.7751 139.535 46.7288 139.31 46.636C139.088 46.5408 138.896 46.4077 138.735 46.2368C138.577 46.0659 138.455 45.8633 138.369 45.6289C138.284 45.3945 138.241 45.1382 138.241 44.8599V44.7061C138.241 44.3838 138.289 44.0969 138.384 43.8455C138.479 43.5916 138.608 43.3767 138.772 43.2009C138.936 43.0251 139.121 42.8921 139.329 42.8018C139.536 42.7114 139.751 42.6663 139.973 42.6663C140.256 42.6663 140.5 42.7151 140.706 42.8127C140.913 42.9104 141.083 43.0471 141.215 43.2229C141.346 43.3962 141.444 43.6013 141.508 43.8381C141.571 44.0725 141.603 44.3289 141.603 44.6072V44.9111H138.644V44.3582H140.925V44.3069C140.916 44.1311 140.879 43.9602 140.815 43.7942C140.754 43.6282 140.657 43.4915 140.522 43.384C140.388 43.2766 140.205 43.2229 139.973 43.2229C139.819 43.2229 139.678 43.2559 139.548 43.3218C139.419 43.3853 139.308 43.4805 139.215 43.6074C139.122 43.7344 139.05 43.8894 138.999 44.0725C138.948 44.2556 138.922 44.4668 138.922 44.7061V44.8599C138.922 45.0479 138.948 45.2249 138.999 45.3909C139.053 45.5544 139.13 45.6985 139.23 45.823C139.332 45.9475 139.456 46.0452 139.6 46.116C139.746 46.1868 139.912 46.2222 140.098 46.2222C140.337 46.2222 140.54 46.1733 140.706 46.0757C140.872 45.978 141.017 45.8474 141.141 45.6838L141.552 46.0098C141.466 46.1392 141.357 46.2625 141.226 46.3796C141.094 46.4968 140.931 46.592 140.739 46.6653C140.548 46.7385 140.322 46.7751 140.061 46.7751Z" fill="black"/>
</svg>
