<svg width="75" height="73" viewBox="0 0 75 73" fill="none" xmlns="http://www.w3.org/2000/svg">
<path d="M25.6928 64.7881C-2.49871 66.267 -4.02681 33.8899 5.3788 20.6493C14.7844 7.40861 38.9489 -5.76649 61.3883 2.96146C83.8278 11.6894 60.9321 62.9393 25.6928 64.7881Z" fill="white"/>
<path d="M72.8142 51.1887V64.2157C72.8142 65.9695 72.1175 67.6515 70.8774 68.8916C69.6373 70.1317 67.9553 70.8284 66.2015 70.8284H19.9127C18.1589 70.8284 16.477 70.1317 15.2369 68.8916C13.9967 67.6515 13.3 65.9695 13.3 64.2157V37.765C13.3 36.0112 13.9967 34.3292 15.2369 33.0891C16.477 31.849 18.1589 31.1523 19.9127 31.1523H41.437" stroke="#01426A" stroke-width="3" stroke-linecap="round" stroke-linejoin="round"/>
<path d="M52.5735 31.2473H72.4115" stroke="#01426A" stroke-width="3" stroke-linecap="round" stroke-linejoin="round"/>
<path d="M62.4915 21.3284V41.1664" stroke="#01426A" stroke-width="3" stroke-linecap="round" stroke-linejoin="round"/>
</svg>
