<svg width="70" height="71" viewBox="0 0 70 71" fill="none" xmlns="http://www.w3.org/2000/svg">
<path d="M4.35534 48.6961C-12.4904 33.2789 23.3984 -6.36545 46.1036 0.976094C68.8087 8.31764 71.0061 39.8865 62.2169 55.3035C53.4278 70.7205 21.2011 64.1134 4.35534 48.6961Z" fill="white"/>
<path d="M18.25 64.1849L20.3082 56.6817C23.721 44.3589 32.7092 38.1323 41.6973 38.1323" stroke="#01426A" stroke-width="3" stroke-linecap="round" stroke-linejoin="round"/>
<path d="M41.6973 38.0809C48.8915 38.0809 54.7236 32.2489 54.7236 25.0547C54.7236 17.8604 48.8915 12.0284 41.6973 12.0284C34.5031 12.0284 28.671 17.8604 28.671 25.0547C28.671 32.2489 34.5031 38.0809 41.6973 38.0809Z" stroke="#01426A" stroke-width="3" stroke-linecap="round" stroke-linejoin="bevel"/>
<path d="M54.7235 69.3958C61.9178 69.3958 67.7498 63.5637 67.7498 56.3695C67.7498 49.1753 61.9178 43.3432 54.7235 43.3432C47.5293 43.3432 41.6973 49.1753 41.6973 56.3695C41.6973 63.5637 47.5293 69.3958 54.7235 69.3958Z" stroke="#01426A" stroke-width="3" stroke-linecap="round" stroke-linejoin="round"/>
<path d="M54.7248 56.916C55.027 56.916 55.2719 56.671 55.2719 56.3689C55.2719 56.0667 55.027 55.8218 54.7248 55.8218C54.4227 55.8218 54.1777 56.0667 54.1777 56.3689C54.1777 56.671 54.4227 56.916 54.7248 56.916Z" stroke="#01426A" stroke-width="3" stroke-linecap="round" stroke-linejoin="round"/>
<path d="M47.8194 56.916C48.1216 56.916 48.3665 56.671 48.3665 56.3689C48.3665 56.0667 48.1216 55.8218 47.8194 55.8218C47.5173 55.8218 47.2723 56.0667 47.2723 56.3689C47.2723 56.671 47.5173 56.916 47.8194 56.916Z" stroke="#01426A" stroke-width="3" stroke-linecap="round" stroke-linejoin="round"/>
<path d="M61.1841 56.916C61.4862 56.916 61.7312 56.671 61.7312 56.3689C61.7312 56.0667 61.4862 55.8218 61.1841 55.8218C60.8819 55.8218 60.637 56.0667 60.637 56.3689C60.637 56.671 60.8819 56.916 61.1841 56.916Z" stroke="#01426A" stroke-width="3" stroke-linecap="round" stroke-linejoin="round"/>
</svg>
