<svg width="78" height="77" viewBox="0 0 78 77" fill="none" xmlns="http://www.w3.org/2000/svg">
<path d="M43.1391 7.0781C60.9595 2.59567 74.5754 14.0517 76.6675 25.7659C78.7596 37.4801 73.8386 55.9947 60.1662 68.3339C46.4938 80.6731 10.9429 81.9909 11.5415 56.741C12.14 31.4911 25.3187 11.5605 43.1391 7.0781Z" fill="white"/>
<path fill-rule="evenodd" clip-rule="evenodd" d="M38.0896 41.9071C48.0503 36.6639 51.8316 24.4194 46.5354 14.5583C41.2392 4.6973 28.8711 0.953745 18.9104 6.19699C8.9497 11.4402 5.1684 23.6847 10.4646 33.5457C15.7608 43.4068 28.1289 47.1503 38.0896 41.9071Z" stroke="#01426A" stroke-width="3"/>
<path d="M15.9304 2.27441C6.995 6.5901 1.78906 13.9378 1.78906 24.2208C1.78906 38.7324 14.0037 50.4963 29.0713 50.4963C34.0115 50.4963 37.0737 49.5966 41.0705 47.3852" stroke="#01426A" stroke-width="3"/>
<path d="M28.4297 51.9965H28.9945L31.1269 58.3297H28.4297V51.9965Z" stroke="#01426A" stroke-width="3"/>
<mask id="mask0_1_132" style="mask-type:alpha" maskUnits="userSpaceOnUse" x="9" y="55" width="42" height="7">
<path d="M48.425 56.7186H11.7148C11.4387 56.7186 11.2148 56.9425 11.2148 57.2186V59.3297C11.2148 59.6058 11.4387 59.8297 11.7148 59.8297H48.425C48.7012 59.8297 48.925 59.6058 48.925 59.3297V57.2186C48.925 56.9425 48.7012 56.7186 48.425 56.7186Z" stroke="#01426A" stroke-width="3.11109"/>
</mask>
<g mask="url(#mask0_1_132)">
<path d="M48.425 56.7186H11.7148C11.4387 56.7186 11.2148 56.9425 11.2148 57.2186V59.3297C11.2148 59.6058 11.4387 59.8297 11.7148 59.8297H48.425C48.7012 59.8297 48.925 59.6058 48.925 59.3297V57.2186C48.925 56.9425 48.7012 56.7186 48.425 56.7186Z" stroke="#01426A" stroke-width="3.11109"/>
</g>
</svg>
