<svg width="79" height="71" viewBox="0 0 79 71" fill="none" xmlns="http://www.w3.org/2000/svg">
<path d="M49.2292 14.1634C43.9067 36.3786 -4.86732 32.5812 1.13031 51.3571C7.12793 70.133 64.5677 82.2911 76.182 52.117C87.7963 21.9428 54.5518 -8.05173 49.2292 14.1634Z" fill="white"/>
<path d="M44.6881 1.8978H20.3845C16.9735 1.8978 14.2083 4.703 14.2083 8.1635V59.4489C14.2083 62.9094 16.9735 65.7147 20.3845 65.7147H44.6881C48.0992 65.7147 50.8644 62.9094 50.8644 59.4489V8.1635C50.8644 4.703 48.0992 1.8978 44.6881 1.8978Z" stroke="#01426A" stroke-width="3" stroke-linecap="round" stroke-linejoin="round"/>
<path d="M32.5523 50.0815H32.5215C31.4299 50.0815 30.545 50.9792 30.545 52.0865V52.1179C30.545 53.2252 31.4299 54.1229 32.5215 54.1229H32.5523C33.6439 54.1229 34.5287 53.2252 34.5287 52.1179V52.0865C34.5287 50.9792 33.6439 50.0815 32.5523 50.0815Z" stroke="#01426A" stroke-width="3" stroke-linecap="round" stroke-linejoin="round"/>
</svg>
