<svg width="144" height="246" viewBox="0 0 144 246" fill="none" xmlns="http://www.w3.org/2000/svg">
<path d="M72 194.667C111.765 194.667 144 162.431 144 122.667C144 82.9022 111.765 50.6667 72 50.6667C32.2355 50.6667 0 82.9022 0 122.667C0 162.431 32.2355 194.667 72 194.667Z" fill="white"/>
<path d="M70.3333 2.6667C70.3333 4.1395 71.5272 5.3334 73 5.3334C74.473 5.3334 75.667 4.1395 75.667 2.6667C75.667 1.1939 74.473 0 73 0C71.5272 0 70.3333 1.1939 70.3333 2.6667ZM73.5 50.6667V2.6667H72.5V50.6667H73.5Z" fill="white"/>
<path d="M75.667 242.667C75.667 241.194 74.473 240 73 240C71.5272 240 70.3333 241.194 70.3333 242.667C70.3333 244.14 71.5272 245.334 73 245.334C74.473 245.334 75.667 244.14 75.667 242.667ZM72.5 194.667V242.667H73.5V194.667H72.5Z" fill="white"/>
<path fill-rule="evenodd" clip-rule="evenodd" d="M37.2711 85.2318C36.2704 85.9088 34.8999 87.2858 34.226 88.2911L33 90.1187V123V155.881L34.226 157.709C34.8999 158.714 36.2704 160.091 37.2711 160.768L39.0901 162H71.6898C103.895 162 104.314 161.986 106.321 160.853C109.204 159.224 110.636 156.399 110.636 152.336V149.048L90.0141 148.889C70.3991 148.737 69.3009 148.675 67.5239 147.627C66.4968 147.02 65.1624 145.68 64.5586 144.648C63.5094 142.853 63.4614 141.91 63.4614 123C63.4614 104.19 63.5137 103.142 64.5397 101.431C65.1328 100.442 66.4671 99.1017 67.505 98.4522C69.3456 97.2995 69.8977 97.267 90.0141 97.111L110.636 96.9518V93.535C110.636 89.6312 109.446 87.3177 106.365 85.2318L104.546 84H71.8181H39.0901L37.2711 85.2318ZM71.8181 123V140.333H93.3837H114.949V123V105.667H93.3837H71.8181V123ZM92.8446 118.045C93.5859 118.59 94.5348 120.009 94.9537 121.198C95.6444 123.161 95.6196 123.558 94.6841 125.483C93.2441 128.447 90.3009 129.88 87.4295 129.015C83.559 127.85 81.7809 123.962 83.5013 120.425C85.3042 116.717 89.5629 115.633 92.8446 118.045Z" fill="#5F8AB7"/>
</svg>
