<svg width="206" height="289" viewBox="0 0 206 289" fill="none" xmlns="http://www.w3.org/2000/svg">
<path d="M205.016 238.219V289H6.57812V246.031L97.9844 149.938C106.057 140.693 112.568 132.424 117.516 125.133C122.464 117.711 126.044 111.005 128.258 105.016C130.602 99.026 131.773 93.6224 131.773 88.8047C131.773 80.6016 130.536 73.7656 128.062 68.2969C125.719 62.6979 122.203 58.4661 117.516 55.6016C112.958 52.737 107.294 51.3047 100.523 51.3047C93.7526 51.3047 87.8281 53.2578 82.75 57.1641C77.6719 61.0703 73.7005 66.4089 70.8359 73.1797C68.1016 79.9505 66.7344 87.5677 66.7344 96.0312H0.71875C0.71875 78.5833 4.95052 62.6328 13.4141 48.1797C22.0078 33.7266 33.9219 22.2031 49.1562 13.6094C64.3906 4.88542 82.0339 0.523438 102.086 0.523438C123.049 0.523438 140.628 3.77865 154.82 10.2891C169.013 16.7995 179.69 26.2396 186.852 38.6094C194.143 50.849 197.789 65.6276 197.789 82.9453C197.789 92.8411 196.227 102.346 193.102 111.461C189.977 120.576 185.484 129.625 179.625 138.609C173.766 147.464 166.604 156.578 158.141 165.953C149.807 175.328 140.302 185.289 129.625 195.836L92.9062 238.219H205.016Z" fill="#BBDFFF"/>
</svg>
