<svg width="208" height="293" viewBox="0 0 208 293" fill="none" xmlns="http://www.w3.org/2000/svg">
<path d="M68.5391 119.273H100.57C108.773 119.273 115.479 117.841 120.688 114.977C126.026 111.982 129.997 107.815 132.602 102.477C135.206 97.0078 136.508 90.5625 136.508 83.1406C136.508 77.4115 135.271 72.138 132.797 67.3203C130.453 62.5026 126.807 58.6615 121.859 55.7969C116.911 52.8021 110.596 51.3047 102.914 51.3047C97.7057 51.3047 92.6276 52.4115 87.6797 54.625C82.7318 56.7083 78.6302 59.7031 75.375 63.6094C72.25 67.5156 70.6875 72.2682 70.6875 77.8672H4.67188C4.67188 61.7214 9.09896 47.9193 17.9531 36.4609C26.9375 24.8724 38.7214 16.0182 53.3047 9.89844C68.0182 3.64844 83.8385 0.523438 100.766 0.523438C120.948 0.523438 138.656 3.64844 153.891 9.89844C169.125 16.0182 180.974 25.1328 189.438 37.2422C198.031 49.2214 202.328 64.0651 202.328 81.7734C202.328 91.5391 200.049 100.719 195.492 109.312C190.935 117.906 184.555 125.458 176.352 131.969C168.148 138.479 158.513 143.622 147.445 147.398C136.508 151.044 124.529 152.867 111.508 152.867H68.5391V119.273ZM68.5391 168.297V135.484H111.508C125.701 135.484 138.656 137.112 150.375 140.367C162.094 143.492 172.185 148.18 180.648 154.43C189.112 160.68 195.622 168.427 200.18 177.672C204.737 186.786 207.016 197.268 207.016 209.117C207.016 222.398 204.346 234.247 199.008 244.664C193.669 255.081 186.182 263.87 176.547 271.031C166.911 278.193 155.648 283.661 142.758 287.438C129.867 291.083 115.87 292.906 100.766 292.906C88.9167 292.906 77.0677 291.344 65.2188 288.219C53.3698 284.964 42.5625 280.016 32.7969 273.375C23.0312 266.604 15.1536 258.01 9.16406 247.594C3.30469 237.047 0.375 224.482 0.375 209.898H66.3906C66.3906 215.888 68.0182 221.357 71.2734 226.305C74.6589 231.122 79.151 234.964 84.75 237.828C90.349 240.693 96.4036 242.125 102.914 242.125C110.987 242.125 117.823 240.628 123.422 237.633C129.151 234.508 133.513 230.341 136.508 225.133C139.503 219.924 141 214.13 141 207.75C141 198.115 139.372 190.432 136.117 184.703C132.992 178.974 128.37 174.807 122.25 172.203C116.26 169.599 109.034 168.297 100.57 168.297H68.5391Z" fill="#BBDFFF"/>
</svg>
