<svg width="68" height="55" viewBox="0 0 68 55" fill="none" xmlns="http://www.w3.org/2000/svg">
<path d="M64.9091 0L3.09091 0C1.38385 0 0 1.567 0 3.5C0 5.433 1.38385 7 3.09091 7L64.9091 7C66.6161 7 68 5.433 68 3.5C68 1.567 66.6161 0 64.9091 0Z" fill="white"/>
<path d="M64.9091 24L3.09091 24C1.38385 24 0 25.567 0 27.5C0 29.433 1.38385 31 3.09091 31L64.9091 31C66.6161 31 68 29.433 68 27.5C68 25.567 66.6161 24 64.9091 24Z" fill="white"/>
<path d="M53.9545 48H13.0455C11.9158 48 11 49.567 11 51.5C11 53.433 11.9158 55 13.0455 55H53.9545C55.0842 55 56 53.433 56 51.5C56 49.567 55.0842 48 53.9545 48Z" fill="white"/>
</svg>
