<svg width="83" height="83" viewBox="0 0 83 83" fill="none" xmlns="http://www.w3.org/2000/svg">
<path d="M33.0169 32.827C25.5909 32.827 19.549 38.87 19.549 46.299C19.549 47.127 20.22 47.799 21.049 47.799H44.9819C45.8099 47.799 46.4819 47.127 46.4819 46.299C46.4819 38.871 40.4419 32.827 33.0169 32.827ZM22.656 44.799C23.385 39.733 27.7539 35.827 33.0169 35.827C38.2789 35.827 42.645 39.733 43.375 44.799H22.656Z" fill="#101010"/>
<path d="M32.803 31.679C37.309 31.679 40.975 28.014 40.975 23.51C40.975 19.01 37.309 15.349 32.803 15.349C28.304 15.349 24.644 19.01 24.644 23.51C24.644 28.014 28.304 31.679 32.803 31.679ZM32.803 18.349C35.655 18.349 37.975 20.664 37.975 23.51C37.975 26.36 35.655 28.679 32.803 28.679C29.958 28.679 27.644 26.36 27.644 23.51C27.644 20.664 29.958 18.349 32.803 18.349Z" fill="#101010"/>
<path d="M81.882 73.427L66.237 57.792C65.956 57.511 65.574 57.353 65.176 57.353C65.176 57.353 65.176 57.353 65.175 57.353C64.778 57.353 64.396 57.511 64.114 57.792L61.547 60.361L56.929 55.744C62.563 49.819 66.031 41.818 66.031 33.016C66.031 14.811 51.22 5.06351e-08 33.015 5.06351e-08C14.811 -0.000999949 0 14.81 0 33.015C0 51.221 14.811 66.031 33.016 66.031C41.342 66.031 48.953 62.926 54.767 57.823L59.428 62.483L57.278 64.634C56.693 65.22 56.693 66.17 57.279 66.755L72.923 82.39C73.204 82.671 73.586 82.829 73.984 82.829C74.382 82.829 74.763 82.671 75.045 82.39L81.883 75.548C82.164 75.267 82.322 74.885 82.322 74.487C82.321 74.089 82.163 73.708 81.882 73.427ZM3 33.015C3 16.464 16.465 2.999 33.016 2.999C49.567 2.999 63.032 16.464 63.032 33.015C63.032 49.566 49.567 63.031 33.016 63.031C16.465 63.031 3 49.566 3 33.015ZM73.982 79.208L60.461 65.693L65.178 60.973L78.7 74.488L73.982 79.208Z" fill="#101010"/>
</svg>
