<svg width="82" height="79" viewBox="0 0 82 79" fill="none" xmlns="http://www.w3.org/2000/svg">
<g clip-path="url(#clip0_17_6)">
<path d="M40.167 78.762C18.019 78.762 0 61.097 0 39.383C0 17.667 18.019 0 40.167 0C48.973 0 57.383 2.785 64.487 8.055C65.87 9.08 66.159 11.032 65.133 12.414C64.109 13.795 62.157 14.087 60.774 13.061C54.752 8.594 47.626 6.233 40.167 6.233C21.456 6.233 6.233 21.104 6.233 39.382C6.233 57.659 21.456 72.529 40.167 72.529C58.879 72.529 74.102 57.659 74.102 39.382C74.102 36.822 73.817 34.333 73.256 31.983C72.857 30.309 73.89 28.628 75.564 28.228C77.232 27.828 78.918 28.861 79.319 30.536C79.993 33.36 80.335 36.336 80.335 39.383C80.334 61.097 62.316 78.762 40.167 78.762Z" fill="#01426A"/>
<path d="M39.38 58.264C38.555 58.264 37.762 57.937 37.176 57.352L15.887 36.065C14.67 34.848 14.67 32.875 15.887 31.658C17.104 30.441 19.077 30.44 20.294 31.658L39.251 50.613L76.467 8.92701C77.614 7.64301 79.585 7.53201 80.867 8.67801C82.151 9.82401 82.263 11.794 81.117 13.078L41.705 57.223C41.134 57.863 40.325 58.239 39.469 58.263C39.438 58.264 39.409 58.264 39.38 58.264Z" fill="#01426A"/>
</g>
<defs>
<clipPath id="clip0_17_6">
<rect width="81.908" height="78.762" fill="white"/>
</clipPath>
</defs>
</svg>
