<svg width="93" height="75" viewBox="0 0 93 75" fill="none" xmlns="http://www.w3.org/2000/svg">
<path d="M66.5086 53.267C66.5036 53.267 66.4976 53.267 66.4926 53.267C65.9696 53.261 65.4876 52.984 65.2196 52.535L50.9616 28.59C50.9216 28.523 50.8876 28.454 50.8586 28.382C49.0806 25.463 48.1426 22.118 48.1426 18.689C48.1606 8.378 56.5566 0 66.8626 0C66.8706 0 66.8776 0 66.8856 0C71.8886 0.007 76.5856 1.961 80.1116 5.501C83.6356 9.038 85.5716 13.74 85.5646 18.739C85.5646 22.117 84.6306 25.444 82.8606 28.381C82.8266 28.477 82.7816 28.569 82.7266 28.658L67.7816 52.563C67.5056 53 67.0246 53.267 66.5086 53.267ZM53.6776 27.287L66.5396 48.888L80.0156 27.333C80.0496 27.241 80.0926 27.151 80.1456 27.066C81.7276 24.539 82.5636 21.659 82.5636 18.738C82.5636 18.737 82.5636 18.737 82.5636 18.736C82.5706 14.536 80.9446 10.588 77.9856 7.617C75.0256 4.646 71.0816 3.006 66.8816 2.999C66.8756 2.999 66.8686 2.999 66.8616 2.999C58.2066 2.999 51.1566 10.034 51.1426 18.691C51.1426 21.645 51.9736 24.527 53.5446 27.023C53.5986 27.106 53.6426 27.195 53.6776 27.287Z" fill="#101010"/>
<path d="M66.8677 25.716C66.8627 25.716 66.8577 25.716 66.8517 25.716C64.7397 25.716 62.7507 24.891 61.2557 23.393C59.7587 21.893 58.9367 19.901 58.9407 17.782C58.9427 15.67 59.7687 13.683 61.2667 12.189C62.7627 10.698 64.7487 9.87701 66.8617 9.87701C66.8637 9.87701 66.8667 9.87701 66.8697 9.87701C71.2347 9.88201 74.7837 13.44 74.7797 17.809C74.7777 19.924 73.9517 21.912 72.4537 23.406C70.9587 24.896 68.9757 25.716 66.8677 25.716ZM66.8607 12.877C65.5487 12.877 64.3137 13.387 63.3847 14.314C62.4547 15.241 61.9417 16.475 61.9407 17.787C61.9387 19.104 62.4497 20.342 63.3797 21.274C64.3077 22.204 65.5427 22.716 66.8547 22.716C66.8577 22.716 66.8607 22.716 66.8647 22.716C68.1767 22.716 69.4077 22.207 70.3357 21.282C71.2657 20.355 71.7787 19.12 71.7797 17.807C71.7817 15.093 69.5777 12.881 66.8657 12.878C66.8647 12.877 66.8627 12.877 66.8607 12.877ZM73.2797 17.808H73.2897H73.2797Z" fill="#101010"/>
<path d="M91.3577 74.545H1.49966C0.995656 74.545 0.525656 74.292 0.247656 73.871C-0.0293438 73.451 -0.0773438 72.919 0.120656 72.455L16.4657 34.213C16.7017 33.661 17.2447 33.302 17.8447 33.302H56.4127C57.2417 33.302 57.9127 33.973 57.9127 34.802C57.9127 35.631 57.2417 36.302 56.4127 36.302H18.8347L3.77166 71.544H89.0847L74.4867 37.394C74.1607 36.632 74.5147 35.751 75.2767 35.425C76.0357 35.1 76.9197 35.452 77.2457 36.215L92.7367 72.454C92.9347 72.918 92.8867 73.45 92.6097 73.87C92.3317 74.292 91.8617 74.545 91.3577 74.545Z" fill="#101010"/>
<path d="M66.6857 74.276C65.9337 74.276 65.2847 73.712 65.1977 72.946C65.1887 72.872 64.2307 65.492 53.8977 63.739C52.9367 63.576 51.4037 63.427 49.6277 63.256C39.8487 62.31 30.9287 61.082 29.2087 56.509C28.0987 53.559 29.7207 51.31 31.0227 49.503C32.4487 47.525 32.9187 46.661 32.1907 45.42C31.7297 44.634 30.2617 43.994 28.8417 43.375C26.0617 42.163 22.2537 40.503 22.2337 35.953C22.2297 35.124 22.8987 34.45 23.7267 34.446C23.7287 34.446 23.7317 34.446 23.7337 34.446C24.5597 34.446 25.2297 35.113 25.2337 35.939C25.2447 38.359 27.0577 39.324 30.0417 40.625C31.9017 41.436 33.8247 42.274 34.7797 43.903C36.5647 46.947 34.7687 49.439 33.4577 51.258C32.2277 52.964 31.4997 54.079 32.0177 55.453C33.2227 58.656 44.4987 59.746 49.9177 60.271C51.7507 60.448 53.3337 60.601 54.3997 60.782C66.9317 62.909 68.1337 72.212 68.1787 72.607C68.2727 73.43 67.6817 74.173 66.8587 74.267C66.8007 74.273 66.7427 74.276 66.6857 74.276Z" fill="#101010"/>
</svg>
