<svg width="70" height="75" viewBox="0 0 70 75" fill="none" xmlns="http://www.w3.org/2000/svg">
<path d="M18.9878 66.3528C-2.97809 62.7695 -2.18902 27.7879 5.91705 15.3211C14.0231 2.85433 33.5776 -6.8365 50.4575 6.63186C67.3374 20.1002 46.4451 70.8318 18.9878 66.3528Z" fill="white"/>
<path fill-rule="evenodd" clip-rule="evenodd" d="M34.2651 73.2549C39.8379 73.2549 44.3556 68.6097 44.3556 62.8796C44.3556 57.1495 39.8379 52.5043 34.2651 52.5043C28.6922 52.5043 24.1746 57.1495 24.1746 62.8796C24.1746 68.6097 28.6922 73.2549 34.2651 73.2549Z" stroke="#01426A" stroke-width="3"/>
<path fill-rule="evenodd" clip-rule="evenodd" d="M47.7189 52.5043C51.4342 52.5043 54.4459 49.4075 54.4459 45.5874C54.4459 41.7673 51.4342 38.6705 47.7189 38.6705C44.0037 38.6705 40.9919 41.7673 40.9919 45.5874C40.9919 49.4075 44.0037 52.5043 47.7189 52.5043Z" stroke="#01426A" stroke-width="3"/>
<path fill-rule="evenodd" clip-rule="evenodd" d="M57.8095 38.6705C59.6672 38.6705 61.173 37.1221 61.173 35.2121C61.173 33.3021 59.6672 31.7537 57.8095 31.7537C55.9519 31.7537 54.446 33.3021 54.446 35.2121C54.446 37.1221 55.9519 38.6705 57.8095 38.6705Z" stroke="#01426A" stroke-width="3"/>
<path fill-rule="evenodd" clip-rule="evenodd" d="M64.5366 28.2952C66.3942 28.2952 67.9001 26.7468 67.9001 24.8368C67.9001 22.9268 66.3942 21.3784 64.5366 21.3784C62.679 21.3784 61.1731 22.9268 61.1731 24.8368C61.1731 26.7468 62.679 28.2952 64.5366 28.2952Z" stroke="#01426A" stroke-width="3"/>
<path fill-rule="evenodd" clip-rule="evenodd" d="M17.4475 38.6705C19.3051 38.6705 20.811 37.1221 20.811 35.2121C20.811 33.3021 19.3051 31.7537 17.4475 31.7537C15.5899 31.7537 14.084 33.3021 14.084 35.2121C14.084 37.1221 15.5899 38.6705 17.4475 38.6705Z" stroke="#01426A" stroke-width="3"/>
<path fill-rule="evenodd" clip-rule="evenodd" d="M24.1745 52.5043C27.8897 52.5043 30.9015 49.4075 30.9015 45.5874C30.9015 41.7673 27.8897 38.6705 24.1745 38.6705C20.4593 38.6705 17.4475 41.7673 17.4475 45.5874C17.4475 49.4075 20.4593 52.5043 24.1745 52.5043Z" stroke="#01426A" stroke-width="3"/>
</svg>
