<svg width="72" height="79" viewBox="0 0 72 79" fill="none" xmlns="http://www.w3.org/2000/svg">
<path d="M71.2162 47.7801C71.2317 75.926 38.9157 75.7741 26.2185 65.7248C13.5213 55.6756 1.65217 30.9347 11.5021 9.04351C21.352 -12.8477 71.1968 12.5977 71.2162 47.7801Z" fill="white"/>
<path d="M10.8961 17.0211C5.92 17.0211 1.88605 21.0563 1.88605 26.034C1.88605 31.0116 5.92 35.0468 10.8962 35.0468C15.8723 35.0468 19.9062 31.0116 19.9062 26.034C19.9062 21.0563 15.8723 17.0211 10.8961 17.0211Z" stroke="#01426A" stroke-width="3" stroke-linecap="round" stroke-linejoin="round"/>
<path d="M46.9372 38.0512C41.961 38.0512 37.9271 42.0863 37.9271 47.064C37.9271 52.0417 41.961 56.0768 46.9372 56.0768C51.9133 56.0768 55.9473 52.0417 55.9473 47.064C55.9473 42.0863 51.9133 38.0512 46.9372 38.0512Z" stroke="#01426A" stroke-width="3" stroke-linecap="round" stroke-linejoin="round"/>
<path d="M39.1582 42.5275L18.6452 30.5705" stroke="#01426A" stroke-width="3" stroke-linecap="round" stroke-linejoin="round"/>
<path d="M10.8971 59.0813C5.92099 59.0813 1.88702 63.1165 1.88702 68.0942C1.88702 73.0718 5.92099 77.107 10.8971 77.107C15.8733 77.107 19.9072 73.0718 19.9072 68.0942C19.9072 63.1165 15.8733 59.0813 10.8971 59.0813Z" stroke="#01426A" stroke-width="3" stroke-linecap="round" stroke-linejoin="round"/>
<path d="M18.6752 63.5574L39.1582 51.6004" stroke="#01426A" stroke-width="3" stroke-linecap="round" stroke-linejoin="round"/>
</svg>
