<svg width="144" height="246" viewBox="0 0 144 246" fill="none" xmlns="http://www.w3.org/2000/svg">
<path d="M72 194.667C111.765 194.667 144 162.431 144 122.667C144 82.9022 111.765 50.6667 72 50.6667C32.2355 50.6667 0 82.9022 0 122.667C0 162.431 32.2355 194.667 72 194.667Z" fill="white"/>
<path fill-rule="evenodd" clip-rule="evenodd" d="M37.2911 84.8987C36.2858 85.5757 34.9088 86.9527 34.2318 87.9577L33 89.7857V122.667V155.548L34.2318 157.376C34.9088 158.381 36.2858 159.758 37.2911 160.435L39.1187 161.667H71.8711C104.228 161.667 104.648 161.653 106.665 160.52C107.787 159.889 109.222 158.454 109.853 157.332C110.986 155.315 111 154.895 111 122.538V89.7857L109.768 87.9577C109.091 86.9527 107.714 85.5757 106.709 84.8987L104.881 83.6667H72H39.1187L37.2911 84.8987ZM76.333 122.667V144.334H72H67.6667V122.667V101H72H76.333V122.667ZM59 129.167V144.334H54.6667H50.3333V129.167V114H54.6667H59V129.167ZM93.667 135.667V144.334H89.333H85V135.667V127H89.333H93.667V135.667Z" fill="#5F8AB7"/>
<path d="M70.3333 2.6667C70.3333 4.1395 71.5272 5.3334 73 5.3334C74.473 5.3334 75.667 4.1395 75.667 2.6667C75.667 1.1939 74.473 0 73 0C71.5272 0 70.3333 1.1939 70.3333 2.6667ZM73.5 50.6667V2.6667H72.5V50.6667H73.5Z" fill="white"/>
<path d="M75.667 242.667C75.667 241.194 74.473 240 73 240C71.5272 240 70.3333 241.194 70.3333 242.667C70.3333 244.14 71.5272 245.334 73 245.334C74.473 245.334 75.667 244.14 75.667 242.667ZM72.5 194.667V242.667H73.5V194.667H72.5Z" fill="white"/>
</svg>
