<svg width="144" height="246" viewBox="0 0 144 246" fill="none" xmlns="http://www.w3.org/2000/svg">
<path d="M72 194.667C111.765 194.667 144 162.431 144 122.667C144 82.9022 111.765 50.6667 72 50.6667C32.2355 50.6667 0 82.9022 0 122.667C0 162.431 32.2355 194.667 72 194.667Z" fill="white"/>
<path d="M70.3333 2.6667C70.3333 4.1395 71.5272 5.3334 73 5.3334C74.473 5.3334 75.667 4.1395 75.667 2.6667C75.667 1.1939 74.473 0 73 0C71.5272 0 70.3333 1.1939 70.3333 2.6667ZM73.5 50.6667V2.6667H72.5V50.6667H73.5Z" fill="white"/>
<path d="M75.667 242.667C75.667 241.194 74.473 240 73 240C71.5272 240 70.3333 241.194 70.3333 242.667C70.3333 244.14 71.5272 245.334 73 245.334C74.473 245.334 75.667 244.14 75.667 242.667ZM72.5 194.667V242.667H73.5V194.667H72.5Z" fill="white"/>
<path fill-rule="evenodd" clip-rule="evenodd" d="M42.643 84.948C41.8332 85.468 39.7845 87.5995 38.0907 89.685C32.4788 96.5953 33.0151 92.7282 33.0129 126.304L33.0108 155.881L34.2426 157.709C34.9197 158.714 36.2966 160.091 37.302 160.768L39.1296 162H71.8832C104.241 162 104.661 161.986 106.678 160.853C107.801 160.222 109.235 158.787 109.866 157.664C110.996 155.655 111.013 155.168 111.011 126.175C111.01 97.8011 110.97 96.663 109.939 94.9713C107.963 91.7304 102.34 85.2519 100.957 84.6213C99.9799 84.1761 91.6395 83.9984 71.8512 84C46.3947 84.0027 43.9945 84.0807 42.643 84.948ZM99.5731 90.4975L101.314 92.6643H72.0376C55.9354 92.6643 42.7611 92.5511 42.7611 92.4124C42.7611 92.2737 43.5178 91.2987 44.4425 90.2456L46.1233 88.3308H71.9774H97.8315L99.5731 90.4975ZM80.6791 118.665V122.999H88.1256H95.5722L83.7921 134.779L72.0121 146.559L60.2321 134.779L48.452 122.999H55.8986H63.3451V118.665V114.332H72.0121H80.6791V118.665Z" fill="#5F8AB7"/>
</svg>
