<svg width="144" height="246" viewBox="0 0 144 246" fill="none" xmlns="http://www.w3.org/2000/svg">
<path d="M72 194.667C111.765 194.667 144 162.431 144 122.667C144 82.9022 111.765 50.6667 72 50.6667C32.2355 50.6667 0 82.9022 0 122.667C0 162.431 32.2355 194.667 72 194.667Z" fill="white"/>
<path d="M70.3333 2.6667C70.3333 4.1395 71.5272 5.3334 73 5.3334C74.473 5.3334 75.667 4.1395 75.667 2.6667C75.667 1.1939 74.473 0 73 0C71.5272 0 70.3333 1.1939 70.3333 2.6667ZM73.5 50.6667V2.6667H72.5V50.6667H73.5Z" fill="white"/>
<path d="M75.667 242.667C75.667 241.194 74.473 240 73 240C71.5272 240 70.3333 241.194 70.3333 242.667C70.3333 244.14 71.5272 245.334 73 245.334C74.473 245.334 75.667 244.14 75.667 242.667ZM72.5 194.667V242.667H73.5V194.667H72.5Z" fill="white"/>
<path fill-rule="evenodd" clip-rule="evenodd" d="M45.9146 85.0969C45.0283 85.7004 43.8442 86.8129 43.2831 87.57C42.2745 88.9311 42.2618 89.3181 42.1316 122.706L42 156.464L43.1183 158.124C43.7331 159.037 44.9767 160.282 45.8815 160.891L47.5263 162H73.1035C98.2516 162 98.7114 161.983 100.518 160.967C101.528 160.399 102.819 159.109 103.387 158.098C104.401 156.294 104.419 155.813 104.419 131.705V107.149L92.8375 95.5742L81.2559 84H64.3909C47.7042 84 47.5092 84.0117 45.9146 85.0969ZM87.8445 100.819L98.3175 111.3H87.7182H77.1195V100.819C77.1195 95.0541 77.1761 90.3375 77.2458 90.3375C77.315 90.3375 82.0847 95.0541 87.8445 100.819ZM88.8195 126.9V130.8H73.2195H57.6195V126.9V123H73.2195H88.8195V126.9ZM88.8195 142.5V146.4H73.2195H57.6195V142.5V138.6H73.2195H88.8195V142.5Z" fill="#5F8AB7"/>
</svg>
